  0
SECTION
  2
HEADER
  9
$ACADVER
  1
AC1009
  9
$FILLMODE
 70
1
  9
$EXTMIN
 10
-0.5080
 20
-0.5842
 30
0.0000
  9
$EXTMAX
 10
115.7732
 20
137.3632
 30
0.0000
  0
ENDSEC
  0
SECTION
  2
TABLES
  0
TABLE
  2
LTYPE
 70
1
  0
LTYPE
  2
CONTINUOUS
 70
64
  3
Solid line
 72
65
 73
0
 40
0
  0
ENDTAB
  0
TABLE
  2
LAYER
 70
255
  0
LAYER
  2
249
 70
64
 62
1
  6
CONTINUOUS
  0
ENDTAB
  0
ENDSEC
  0
SECTION
  2
BLOCKS
  0
BLOCK
  8
0
  2
RECT
 70
64
 10
0.0000
 20
0.0000
 30
0.0000
  3
RECT
  0
SOLID
  8
0
 10
-0.5000
 20
-0.5000
 30
0.0000
 11
0.5000
 21
-0.5000
 31
0.0000
 12
-0.5000
 22
0.5000
 32
0.0000
 13
0.5000
 23
0.5000
 33
0.0000
  0
ENDBLK
  8
0
  0
BLOCK
  8
0
  2
PIE
 70
64
 10
0.0000
 20
0.0000
 30
0.0000
  3
PIE
  0
POLYLINE
  8
0
 66
1
 10
0.0000
 20
0.0000
 30
0.0000
 40
0.5000
 41
0.5000
 70
0
  0
VERTEX
  8
0
 10
0.0000
 20
-0.2500
 30
0.0000
 42
1.0000
  0
VERTEX
  8
0
 10
0.0000
 20
0.2500
 30
0.0000
 42
1.0000
  0
VERTEX
  8
0
 10
0.0000
 20
-0.2500
 30
0.0000
  0
SEQEND
  8
0
  0
ENDBLK
  8
0
  0
BLOCK
  8
0
  2
OCTAGONP
 70
64
 10
0.0000
 20
0.0000
 30
0.0000
  3
OCTAGONP
  0
POLYLINE
  8
0
 66
1
 10
0.0000
 20
0.0000
 30
0.0000
 40
0.5000
 41
0.5000
 70
0
  0
VERTEX
  8
0
 10
-0.2500
 20
-0.1036
 30
0.0000
  0
VERTEX
  8
0
 10
-0.2500
 20
0.1036
 30
0.0000
  0
VERTEX
  8
0
 10
-0.1036
 20
0.2500
 30
0.0000
  0
VERTEX
  8
0
 10
0.1036
 20
0.2500
 30
0.0000
  0
VERTEX
  8
0
 10
0.2500
 20
0.1036
 30
0.0000
  0
VERTEX
  8
0
 10
0.2500
 20
-0.1036
 30
0.0000
  0
VERTEX
  8
0
 10
0.1036
 20
-0.2500
 30
0.0000
  0
VERTEX
  8
0
 10
-0.1036
 20
-0.2500
 30
0.0000
  0
VERTEX
  8
0
 10
-0.2500
 20
-0.1036
 30
0.0000
  0
VERTEX
  8
0
 10
-0.2500
 20
0.1036
 30
0.0000
  0
SEQEND
  8
0
  0
ENDBLK
  8
0
  0
BLOCK
  8
0
  2
SQUAREP
 70
64
 10
0.0000
 20
0.0000
 30
0.0000
  3
SQUAREP
  0
SOLID
  8
0
 10
-0.5000
 20
-0.5000
 30
0.0000
 11
0.5000
 21
-0.5000
 31
0.0000
 12
-0.5000
 22
0.5000
 32
0.0000
 13
0.5000
 23
0.5000
 33
0.0000
  0
ENDBLK
  8
0
  0
BLOCK
  8
0
  2
ROUNDP
 70
64
 10
0.0000
 20
0.0000
 30
0.0000
  3
ROUNDP
  0
POLYLINE
  8
0
 66
1
 10
0.0000
 20
0.0000
 30
0.0000
 40
0.5000
 41
0.5000
 70
0
  0
VERTEX
  8
0
 10
0.0000
 20
-0.2500
 30
0.0000
 42
1.0000
  0
VERTEX
  8
0
 10
0.0000
 20
0.2500
 30
0.0000
 42
1.0000
  0
VERTEX
  8
0
 10
0.0000
 20
-0.2500
 30
0.0000
  0
SEQEND
  8
0
  0
ENDBLK
  8
0
  0
BLOCK
  8
0
  2
ANNULUSP
 70
64
 10
0.0000
 20
0.0000
 30
0.0000
  3
ANNULUSP
  0
POLYLINE
  8
0
 66
1
 10
0.0000
 20
0.0000
 30
0.0000
 40
0.5000
 41
0.5000
 70
0
  0
VERTEX
  8
0
 10
0.0000
 20
-0.2500
 30
0.0000
 42
1.0000
  0
VERTEX
  8
0
 10
0.0000
 20
0.2500
 30
0.0000
 42
1.0000
  0
VERTEX
  8
0
 10
0.0000
 20
-0.2500
 30
0.0000
  0
SEQEND
  8
0
  0
ENDBLK
  8
0
  0
BLOCK
  8
0
  2
THERMALP
 70
64
 10
0.0000
 20
0.0000
 30
0.0000
  3
THERMALP
  0
POLYLINE
  8
0
 66
1
 10
0.0000
 20
0.0000
 30
0.0000
 40
0.1000
 41
0.1000
 70
0
  0
VERTEX
  8
0
 10
-0.2379
 20
0.4500
 30
0.0000
  0
VERTEX
  8
0
 10
0.2379
 20
0.4500
 30
0.0000
  0
SEQEND
  8
0
  0
POLYLINE
  8
0
 66
1
 10
0.0000
 20
0.0000
 30
0.0000
 40
0.0500
 41
0.0500
 70
0
  0
VERTEX
  8
0
 10
0.2379
 20
0.4250
 30
0.0000
 42
1.0000
  0
VERTEX
  8
0
 10
0.2379
 20
0.4750
 30
0.0000
  0
SEQEND
  8
0
  0
POLYLINE
  8
0
 66
1
 10
0.0000
 20
0.0000
 30
0.0000
 40
0.0500
 41
0.0500
 70
0
  0
VERTEX
  8
0
 10
-0.2379
 20
0.4750
 30
0.0000
 42
1.0000
  0
VERTEX
  8
0
 10
-0.2379
 20
0.4250
 30
0.0000
  0
SEQEND
  8
0
  0
POLYLINE
  8
0
 66
1
 10
0.0000
 20
0.0000
 30
0.0000
 40
0.1000
 41
0.1000
 70
0
  0
VERTEX
  8
0
 10
0.4500
 20
0.2379
 30
0.0000
  0
VERTEX
  8
0
 10
0.4500
 20
-0.2379
 30
0.0000
  0
SEQEND
  8
0
  0
POLYLINE
  8
0
 66
1
 10
0.0000
 20
0.0000
 30
0.0000
 40
0.0500
 41
0.0500
 70
0
  0
VERTEX
  8
0
 10
0.4250
 20
-0.2379
 30
0.0000
 42
1.0000
  0
VERTEX
  8
0
 10
0.4750
 20
-0.2379
 30
0.0000
  0
SEQEND
  8
0
  0
POLYLINE
  8
0
 66
1
 10
0.0000
 20
0.0000
 30
0.0000
 40
0.0500
 41
0.0500
 70
0
  0
VERTEX
  8
0
 10
0.4750
 20
0.2379
 30
0.0000
 42
1.0000
  0
VERTEX
  8
0
 10
0.4250
 20
0.2379
 30
0.0000
  0
SEQEND
  8
0
  0
POLYLINE
  8
0
 66
1
 10
0.0000
 20
0.0000
 30
0.0000
 40
0.1000
 41
0.1000
 70
0
  0
VERTEX
  8
0
 10
0.2379
 20
-0.4500
 30
0.0000
  0
VERTEX
  8
0
 10
-0.2379
 20
-0.4500
 30
0.0000
  0
SEQEND
  8
0
  0
POLYLINE
  8
0
 66
1
 10
0.0000
 20
0.0000
 30
0.0000
 40
0.0500
 41
0.0500
 70
0
  0
VERTEX
  8
0
 10
-0.2379
 20
-0.4250
 30
0.0000
 42
1.0000
  0
VERTEX
  8
0
 10
-0.2379
 20
-0.4750
 30
0.0000
  0
SEQEND
  8
0
  0
POLYLINE
  8
0
 66
1
 10
0.0000
 20
0.0000
 30
0.0000
 40
0.0500
 41
0.0500
 70
0
  0
VERTEX
  8
0
 10
0.2379
 20
-0.4750
 30
0.0000
 42
1.0000
  0
VERTEX
  8
0
 10
0.2379
 20
-0.4250
 30
0.0000
  0
SEQEND
  8
0
  0
POLYLINE
  8
0
 66
1
 10
0.0000
 20
0.0000
 30
0.0000
 40
0.1000
 41
0.1000
 70
0
  0
VERTEX
  8
0
 10
-0.4500
 20
-0.2379
 30
0.0000
  0
VERTEX
  8
0
 10
-0.4500
 20
0.2379
 30
0.0000
  0
SEQEND
  8
0
  0
POLYLINE
  8
0
 66
1
 10
0.0000
 20
0.0000
 30
0.0000
 40
0.0500
 41
0.0500
 70
0
  0
VERTEX
  8
0
 10
-0.4250
 20
0.2379
 30
0.0000
 42
1.0000
  0
VERTEX
  8
0
 10
-0.4750
 20
0.2379
 30
0.0000
  0
SEQEND
  8
0
  0
POLYLINE
  8
0
 66
1
 10
0.0000
 20
0.0000
 30
0.0000
 40
0.0500
 41
0.0500
 70
0
  0
VERTEX
  8
0
 10
-0.4750
 20
-0.2379
 30
0.0000
 42
1.0000
  0
VERTEX
  8
0
 10
-0.4250
 20
-0.2379
 30
0.0000
  0
SEQEND
  8
0
  0
ENDBLK
  8
0
  0
BLOCK
  8
0
  2
OCTAGONV
 70
64
 10
0.0000
 20
0.0000
 30
0.0000
  3
OCTAGONV
  0
POLYLINE
  8
0
 66
1
 10
0.0000
 20
0.0000
 30
0.0000
 40
0.5000
 41
0.5000
 70
0
  0
VERTEX
  8
0
 10
-0.2500
 20
-0.1036
 30
0.0000
  0
VERTEX
  8
0
 10
-0.2500
 20
0.1036
 30
0.0000
  0
VERTEX
  8
0
 10
-0.1036
 20
0.2500
 30
0.0000
  0
VERTEX
  8
0
 10
0.1036
 20
0.2500
 30
0.0000
  0
VERTEX
  8
0
 10
0.2500
 20
0.1036
 30
0.0000
  0
VERTEX
  8
0
 10
0.2500
 20
-0.1036
 30
0.0000
  0
VERTEX
  8
0
 10
0.1036
 20
-0.2500
 30
0.0000
  0
VERTEX
  8
0
 10
-0.1036
 20
-0.2500
 30
0.0000
  0
VERTEX
  8
0
 10
-0.2500
 20
-0.1036
 30
0.0000
  0
VERTEX
  8
0
 10
-0.2500
 20
0.1036
 30
0.0000
  0
SEQEND
  8
0
  0
ENDBLK
  8
0
  0
BLOCK
  8
0
  2
SQUAREV
 70
64
 10
0.0000
 20
0.0000
 30
0.0000
  3
SQUAREV
  0
SOLID
  8
0
 10
-0.5000
 20
-0.5000
 30
0.0000
 11
0.5000
 21
-0.5000
 31
0.0000
 12
-0.5000
 22
0.5000
 32
0.0000
 13
0.5000
 23
0.5000
 33
0.0000
  0
ENDBLK
  8
0
  0
BLOCK
  8
0
  2
ROUNDV
 70
64
 10
0.0000
 20
0.0000
 30
0.0000
  3
ROUNDV
  0
POLYLINE
  8
0
 66
1
 10
0.0000
 20
0.0000
 30
0.0000
 40
0.5000
 41
0.5000
 70
0
  0
VERTEX
  8
0
 10
0.0000
 20
-0.2500
 30
0.0000
 42
1.0000
  0
VERTEX
  8
0
 10
0.0000
 20
0.2500
 30
0.0000
 42
1.0000
  0
VERTEX
  8
0
 10
0.0000
 20
-0.2500
 30
0.0000
  0
SEQEND
  8
0
  0
ENDBLK
  8
0
  0
BLOCK
  8
0
  2
ANNULUSV
 70
64
 10
0.0000
 20
0.0000
 30
0.0000
  3
ANNULUSV
  0
POLYLINE
  8
0
 66
1
 10
0.0000
 20
0.0000
 30
0.0000
 40
0.5000
 41
0.5000
 70
0
  0
VERTEX
  8
0
 10
0.0000
 20
-0.2500
 30
0.0000
 42
1.0000
  0
VERTEX
  8
0
 10
0.0000
 20
0.2500
 30
0.0000
 42
1.0000
  0
VERTEX
  8
0
 10
0.0000
 20
-0.2500
 30
0.0000
  0
SEQEND
  8
0
  0
ENDBLK
  8
0
  0
BLOCK
  8
0
  2
THERMALV
 70
64
 10
0.0000
 20
0.0000
 30
0.0000
  3
THERMALV
  0
POLYLINE
  8
0
 66
1
 10
0.0000
 20
0.0000
 30
0.0000
 40
0.1000
 41
0.1000
 70
0
  0
VERTEX
  8
0
 10
-0.2379
 20
0.4500
 30
0.0000
  0
VERTEX
  8
0
 10
0.2379
 20
0.4500
 30
0.0000
  0
SEQEND
  8
0
  0
POLYLINE
  8
0
 66
1
 10
0.0000
 20
0.0000
 30
0.0000
 40
0.0500
 41
0.0500
 70
0
  0
VERTEX
  8
0
 10
0.2379
 20
0.4250
 30
0.0000
 42
1.0000
  0
VERTEX
  8
0
 10
0.2379
 20
0.4750
 30
0.0000
  0
SEQEND
  8
0
  0
POLYLINE
  8
0
 66
1
 10
0.0000
 20
0.0000
 30
0.0000
 40
0.0500
 41
0.0500
 70
0
  0
VERTEX
  8
0
 10
-0.2379
 20
0.4750
 30
0.0000
 42
1.0000
  0
VERTEX
  8
0
 10
-0.2379
 20
0.4250
 30
0.0000
  0
SEQEND
  8
0
  0
POLYLINE
  8
0
 66
1
 10
0.0000
 20
0.0000
 30
0.0000
 40
0.1000
 41
0.1000
 70
0
  0
VERTEX
  8
0
 10
0.4500
 20
0.2379
 30
0.0000
  0
VERTEX
  8
0
 10
0.4500
 20
-0.2379
 30
0.0000
  0
SEQEND
  8
0
  0
POLYLINE
  8
0
 66
1
 10
0.0000
 20
0.0000
 30
0.0000
 40
0.0500
 41
0.0500
 70
0
  0
VERTEX
  8
0
 10
0.4250
 20
-0.2379
 30
0.0000
 42
1.0000
  0
VERTEX
  8
0
 10
0.4750
 20
-0.2379
 30
0.0000
  0
SEQEND
  8
0
  0
POLYLINE
  8
0
 66
1
 10
0.0000
 20
0.0000
 30
0.0000
 40
0.0500
 41
0.0500
 70
0
  0
VERTEX
  8
0
 10
0.4750
 20
0.2379
 30
0.0000
 42
1.0000
  0
VERTEX
  8
0
 10
0.4250
 20
0.2379
 30
0.0000
  0
SEQEND
  8
0
  0
POLYLINE
  8
0
 66
1
 10
0.0000
 20
0.0000
 30
0.0000
 40
0.1000
 41
0.1000
 70
0
  0
VERTEX
  8
0
 10
0.2379
 20
-0.4500
 30
0.0000
  0
VERTEX
  8
0
 10
-0.2379
 20
-0.4500
 30
0.0000
  0
SEQEND
  8
0
  0
POLYLINE
  8
0
 66
1
 10
0.0000
 20
0.0000
 30
0.0000
 40
0.0500
 41
0.0500
 70
0
  0
VERTEX
  8
0
 10
-0.2379
 20
-0.4250
 30
0.0000
 42
1.0000
  0
VERTEX
  8
0
 10
-0.2379
 20
-0.4750
 30
0.0000
  0
SEQEND
  8
0
  0
POLYLINE
  8
0
 66
1
 10
0.0000
 20
0.0000
 30
0.0000
 40
0.0500
 41
0.0500
 70
0
  0
VERTEX
  8
0
 10
0.2379
 20
-0.4750
 30
0.0000
 42
1.0000
  0
VERTEX
  8
0
 10
0.2379
 20
-0.4250
 30
0.0000
  0
SEQEND
  8
0
  0
POLYLINE
  8
0
 66
1
 10
0.0000
 20
0.0000
 30
0.0000
 40
0.1000
 41
0.1000
 70
0
  0
VERTEX
  8
0
 10
-0.4500
 20
-0.2379
 30
0.0000
  0
VERTEX
  8
0
 10
-0.4500
 20
0.2379
 30
0.0000
  0
SEQEND
  8
0
  0
POLYLINE
  8
0
 66
1
 10
0.0000
 20
0.0000
 30
0.0000
 40
0.0500
 41
0.0500
 70
0
  0
VERTEX
  8
0
 10
-0.4250
 20
0.2379
 30
0.0000
 42
1.0000
  0
VERTEX
  8
0
 10
-0.4750
 20
0.2379
 30
0.0000
  0
SEQEND
  8
0
  0
POLYLINE
  8
0
 66
1
 10
0.0000
 20
0.0000
 30
0.0000
 40
0.0500
 41
0.0500
 70
0
  0
VERTEX
  8
0
 10
-0.4750
 20
-0.2379
 30
0.0000
 42
1.0000
  0
VERTEX
  8
0
 10
-0.4250
 20
-0.2379
 30
0.0000
  0
SEQEND
  8
0
  0
ENDBLK
  8
0
  0
ENDSEC
  0
SECTION
  2
ENTITIES
  0
LINE
  8
249
 10
44.7040
 20
123.1900
 30
0.0000
 11
74.8030
 21
123.1900
 31
0.0000
  0
LINE
  8
249
 10
74.8030
 20
123.1900
 30
0.0000
 11
74.8030
 21
111.7600
 31
0.0000
  0
LINE
  8
249
 10
74.8030
 20
111.7600
 30
0.0000
 11
44.7040
 21
111.7600
 31
0.0000
  0
LINE
  8
249
 10
44.7040
 20
111.7600
 30
0.0000
 11
44.7040
 21
123.1900
 31
0.0000
  0
LINE
  8
249
 10
0.0000
 20
137.1600
 30
0.0000
 11
115.5700
 21
137.1600
 31
0.0000
  0
LINE
  8
249
 10
115.5700
 20
137.1600
 30
0.0000
 11
115.5700
 21
0.0000
 31
0.0000
  0
LINE
  8
249
 10
115.5700
 20
0.0000
 30
0.0000
 11
0.0000
 21
0.0000
 31
0.0000
  0
LINE
  8
249
 10
0.0000
 20
0.0000
 30
0.0000
 11
0.0000
 21
137.1600
 31
0.0000
  0
POLYLINE
  8
249
 66
1
 10
0.0000
 20
0.0000
 30
0.0000
 40
2.2606
 41
2.2606
 70
0
  0
VERTEX
  8
249
 10
24.1300
 20
118.2497
 30
0.0000
 42
1.0000
  0
VERTEX
  8
249
 10
24.1300
 20
120.5103
 30
0.0000
 42
1.0000
  0
VERTEX
  8
249
 10
24.1300
 20
118.2497
 30
0.0000
  0
SEQEND
  8
0
  0
POLYLINE
  8
249
 66
1
 10
0.0000
 20
0.0000
 30
0.0000
 40
4.5720
 41
4.5720
 70
0
  0
VERTEX
  8
249
 10
80.0100
 20
32.0040
 30
0.0000
 42
1.0000
  0
VERTEX
  8
249
 10
80.0100
 20
36.5760
 30
0.0000
 42
1.0000
  0
VERTEX
  8
249
 10
80.0100
 20
32.0040
 30
0.0000
  0
SEQEND
  8
0
  0
POLYLINE
  8
249
 66
1
 10
0.0000
 20
0.0000
 30
0.0000
 40
1.0000
 41
1.0000
 70
0
  0
VERTEX
  8
249
 10
80.0100
 20
27.7900
 30
0.0000
 42
1.0000
  0
VERTEX
  8
249
 10
80.0100
 20
28.7900
 30
0.0000
 42
1.0000
  0
VERTEX
  8
249
 10
80.0100
 20
27.7900
 30
0.0000
  0
SEQEND
  8
0
  0
POLYLINE
  8
249
 66
1
 10
0.0000
 20
0.0000
 30
0.0000
 40
4.5720
 41
4.5720
 70
0
  0
VERTEX
  8
249
 10
40.6400
 20
32.0040
 30
0.0000
 42
1.0000
  0
VERTEX
  8
249
 10
40.6400
 20
36.5760
 30
0.0000
 42
1.0000
  0
VERTEX
  8
249
 10
40.6400
 20
32.0040
 30
0.0000
  0
SEQEND
  8
0
  0
POLYLINE
  8
249
 66
1
 10
0.0000
 20
0.0000
 30
0.0000
 40
1.0000
 41
1.0000
 70
0
  0
VERTEX
  8
249
 10
40.6400
 20
27.7900
 30
0.0000
 42
1.0000
  0
VERTEX
  8
249
 10
40.6400
 20
28.7900
 30
0.0000
 42
1.0000
  0
VERTEX
  8
249
 10
40.6400
 20
27.7900
 30
0.0000
  0
SEQEND
  8
0
  0
POLYLINE
  8
249
 66
1
 10
0.0000
 20
0.0000
 30
0.0000
 40
4.5720
 41
4.5720
 70
0
  0
VERTEX
  8
249
 10
80.0100
 20
89.1540
 30
0.0000
 42
1.0000
  0
VERTEX
  8
249
 10
80.0100
 20
93.7260
 30
0.0000
 42
1.0000
  0
VERTEX
  8
249
 10
80.0100
 20
89.1540
 30
0.0000
  0
SEQEND
  8
0
  0
POLYLINE
  8
249
 66
1
 10
0.0000
 20
0.0000
 30
0.0000
 40
1.0000
 41
1.0000
 70
0
  0
VERTEX
  8
249
 10
80.0100
 20
84.9400
 30
0.0000
 42
1.0000
  0
VERTEX
  8
249
 10
80.0100
 20
85.9400
 30
0.0000
 42
1.0000
  0
VERTEX
  8
249
 10
80.0100
 20
84.9400
 30
0.0000
  0
SEQEND
  8
0
  0
POLYLINE
  8
249
 66
1
 10
0.0000
 20
0.0000
 30
0.0000
 40
4.5720
 41
4.5720
 70
0
  0
VERTEX
  8
249
 10
40.6400
 20
89.1540
 30
0.0000
 42
1.0000
  0
VERTEX
  8
249
 10
40.6400
 20
93.7260
 30
0.0000
 42
1.0000
  0
VERTEX
  8
249
 10
40.6400
 20
89.1540
 30
0.0000
  0
SEQEND
  8
0
  0
POLYLINE
  8
249
 66
1
 10
0.0000
 20
0.0000
 30
0.0000
 40
1.0000
 41
1.0000
 70
0
  0
VERTEX
  8
249
 10
40.6400
 20
84.9400
 30
0.0000
 42
1.0000
  0
VERTEX
  8
249
 10
40.6400
 20
85.9400
 30
0.0000
 42
1.0000
  0
VERTEX
  8
249
 10
40.6400
 20
84.9400
 30
0.0000
  0
SEQEND
  8
0
  0
POLYLINE
  8
249
 66
1
 10
0.0000
 20
0.0000
 30
0.0000
 40
1.6189
 41
1.6189
 70
0
  0
VERTEX
  8
249
 10
3.8100
 20
132.5405
 30
0.0000
 42
1.0000
  0
VERTEX
  8
249
 10
3.8100
 20
134.1595
 30
0.0000
 42
1.0000
  0
VERTEX
  8
249
 10
3.8100
 20
132.5405
 30
0.0000
  0
SEQEND
  8
0
  0
POLYLINE
  8
249
 66
1
 10
0.0000
 20
0.0000
 30
0.0000
 40
1.6189
 41
1.6189
 70
0
  0
VERTEX
  8
249
 10
111.7600
 20
132.5405
 30
0.0000
 42
1.0000
  0
VERTEX
  8
249
 10
111.7600
 20
134.1595
 30
0.0000
 42
1.0000
  0
VERTEX
  8
249
 10
111.7600
 20
132.5405
 30
0.0000
  0
SEQEND
  8
0
  0
POLYLINE
  8
249
 66
1
 10
0.0000
 20
0.0000
 30
0.0000
 40
1.7098
 41
1.7098
 70
0
  0
VERTEX
  8
249
 10
111.7600
 20
2.9551
 30
0.0000
 42
1.0000
  0
VERTEX
  8
249
 10
111.7600
 20
4.6649
 30
0.0000
 42
1.0000
  0
VERTEX
  8
249
 10
111.7600
 20
2.9551
 30
0.0000
  0
SEQEND
  8
0
  0
POLYLINE
  8
249
 66
1
 10
0.0000
 20
0.0000
 30
0.0000
 40
1.7098
 41
1.7098
 70
0
  0
VERTEX
  8
249
 10
3.8100
 20
2.9551
 30
0.0000
 42
1.0000
  0
VERTEX
  8
249
 10
3.8100
 20
4.6649
 30
0.0000
 42
1.0000
  0
VERTEX
  8
249
 10
3.8100
 20
2.9551
 30
0.0000
  0
SEQEND
  8
0
  0
POLYLINE
  8
249
 66
1
 10
0.0000
 20
0.0000
 30
0.0000
 40
4.5720
 41
4.5720
 70
0
  0
VERTEX
  8
249
 10
92.0750
 20
62.4840
 30
0.0000
 42
1.0000
  0
VERTEX
  8
249
 10
92.0750
 20
67.0560
 30
0.0000
 42
1.0000
  0
VERTEX
  8
249
 10
92.0750
 20
62.4840
 30
0.0000
  0
SEQEND
  8
0
  0
POLYLINE
  8
249
 66
1
 10
0.0000
 20
0.0000
 30
0.0000
 40
1.0000
 41
1.0000
 70
0
  0
VERTEX
  8
249
 10
92.0750
 20
58.2700
 30
0.0000
 42
1.0000
  0
VERTEX
  8
249
 10
92.0750
 20
59.2700
 30
0.0000
 42
1.0000
  0
VERTEX
  8
249
 10
92.0750
 20
58.2700
 30
0.0000
  0
SEQEND
  8
0
  0
POLYLINE
  8
249
 66
1
 10
0.0000
 20
0.0000
 30
0.0000
 40
4.5720
 41
4.5720
 70
0
  0
VERTEX
  8
249
 10
53.3400
 20
62.4840
 30
0.0000
 42
1.0000
  0
VERTEX
  8
249
 10
53.3400
 20
67.0560
 30
0.0000
 42
1.0000
  0
VERTEX
  8
249
 10
53.3400
 20
62.4840
 30
0.0000
  0
SEQEND
  8
0
  0
POLYLINE
  8
249
 66
1
 10
0.0000
 20
0.0000
 30
0.0000
 40
1.0000
 41
1.0000
 70
0
  0
VERTEX
  8
249
 10
53.3400
 20
58.2700
 30
0.0000
 42
1.0000
  0
VERTEX
  8
249
 10
53.3400
 20
59.2700
 30
0.0000
 42
1.0000
  0
VERTEX
  8
249
 10
53.3400
 20
58.2700
 30
0.0000
  0
SEQEND
  8
0
  0
POLYLINE
  8
249
 66
1
 10
0.0000
 20
0.0000
 30
0.0000
 40
3.8100
 41
3.8100
 70
0
  0
VERTEX
  8
249
 10
11.4300
 20
74.6150
 30
0.0000
 42
1.0000
  0
VERTEX
  8
249
 10
11.4300
 20
78.4250
 30
0.0000
 42
1.0000
  0
VERTEX
  8
249
 10
11.4300
 20
74.6150
 30
0.0000
  0
SEQEND
  8
0
  0
ENDSEC
  0
EOF
