G75*
%MOIN*%
%OFA0B0*%
%FSLAX24Y24*%
%IPPOS*%
%LPD*%
%AMOC8*
5,1,8,0,0,1.08239X$1,22.5*
%
%ADD10R,0.0866X0.0236*%
%ADD11R,0.0394X0.0433*%
%ADD12R,0.0433X0.0394*%
%ADD13R,0.0551X0.0394*%
%ADD14R,0.0394X0.0551*%
%ADD15R,0.0551X0.1496*%
%ADD16R,0.1024X0.0591*%
%ADD17R,0.0591X0.1024*%
%ADD18R,0.0236X0.0866*%
D10*
X024476Y017680D03*
X024476Y018180D03*
X024476Y018680D03*
X024476Y019180D03*
X024476Y019680D03*
X024476Y020180D03*
X024476Y020680D03*
X026524Y020680D03*
X026524Y020180D03*
X026524Y019680D03*
X026524Y019180D03*
X026524Y018680D03*
X026524Y018180D03*
X026524Y017680D03*
X031726Y018380D03*
X031726Y018880D03*
X031726Y019380D03*
X031726Y019880D03*
X033351Y021680D03*
X033351Y022180D03*
X033351Y022680D03*
X033351Y023180D03*
X033351Y023680D03*
X033351Y024180D03*
X033351Y024680D03*
X035399Y024680D03*
X035399Y024180D03*
X035399Y023680D03*
X035399Y023180D03*
X035399Y022680D03*
X035399Y022180D03*
X035399Y021680D03*
X033774Y019880D03*
X033774Y019380D03*
X033774Y018880D03*
X033774Y018380D03*
X008149Y039930D03*
X008149Y040430D03*
X008149Y040930D03*
X008149Y041430D03*
X006101Y041430D03*
X006101Y040930D03*
X006101Y040430D03*
X006101Y039930D03*
D11*
X005125Y036015D03*
X005125Y035345D03*
X006790Y035680D03*
X007460Y035680D03*
X008790Y035680D03*
X009460Y035680D03*
X009665Y032305D03*
X010335Y032305D03*
X010335Y031305D03*
X009665Y031305D03*
X007085Y027680D03*
X006415Y027680D03*
X007790Y015055D03*
X008460Y015055D03*
X013665Y013180D03*
X014335Y013180D03*
X010300Y008540D03*
X010300Y007870D03*
X022875Y019220D03*
X022875Y019890D03*
X023790Y015805D03*
X024460Y015805D03*
X029915Y008805D03*
X030585Y008805D03*
X030460Y006180D03*
X029790Y006180D03*
X030790Y005180D03*
X031460Y005180D03*
X033125Y005265D03*
X033125Y004595D03*
X034290Y005055D03*
X034960Y005055D03*
X037640Y007255D03*
X038310Y007255D03*
X038360Y009455D03*
X037690Y009455D03*
X037690Y010430D03*
X038360Y010430D03*
X036210Y010555D03*
X035540Y010555D03*
X035335Y009430D03*
X034665Y009430D03*
X037265Y015605D03*
X037935Y015605D03*
X039115Y016880D03*
X039785Y016880D03*
X037985Y017530D03*
X037985Y018430D03*
X037315Y018430D03*
X037315Y017530D03*
X036375Y022220D03*
X036375Y022890D03*
X041290Y024180D03*
X041960Y024180D03*
X041835Y028180D03*
X041165Y028180D03*
X039960Y031180D03*
X039290Y031180D03*
X039210Y034430D03*
X038540Y034430D03*
X043290Y032305D03*
X043960Y032305D03*
X042210Y016180D03*
X041540Y016180D03*
X041415Y006680D03*
X042085Y006680D03*
X016375Y042845D03*
X016375Y043515D03*
X014125Y043140D03*
X014125Y042470D03*
X012660Y043780D03*
X011990Y043780D03*
X014690Y045880D03*
X015360Y045880D03*
X015660Y047180D03*
X014990Y047180D03*
X014990Y048180D03*
X015660Y048180D03*
X015660Y049180D03*
X014990Y049180D03*
X014035Y049905D03*
X013365Y049905D03*
X009535Y049780D03*
X008865Y049780D03*
X008500Y044640D03*
X008500Y043970D03*
D12*
X006290Y008680D03*
X006960Y008680D03*
X011375Y008515D03*
X011375Y007845D03*
X011290Y014430D03*
X011960Y014430D03*
X011960Y015430D03*
X011290Y015430D03*
X012000Y016470D03*
X012000Y017140D03*
X007500Y025220D03*
X007500Y025890D03*
X008250Y027220D03*
X008250Y027890D03*
X006875Y033470D03*
X006875Y034140D03*
X006790Y037180D03*
X007460Y037180D03*
X008790Y037180D03*
X009460Y037180D03*
X005960Y037180D03*
X005290Y037180D03*
X004625Y040845D03*
X004625Y041515D03*
X006425Y045045D03*
X006425Y045715D03*
X008325Y045645D03*
X008325Y046315D03*
X007925Y049245D03*
X007925Y049915D03*
X006725Y049915D03*
X006725Y049245D03*
X005625Y049245D03*
X005625Y049915D03*
X013415Y035180D03*
X014085Y035180D03*
X022040Y040180D03*
X022710Y040180D03*
X024250Y040720D03*
X024250Y041390D03*
X025500Y041390D03*
X025500Y040720D03*
X037000Y048970D03*
X037000Y049640D03*
X032335Y021555D03*
X031665Y021555D03*
X031640Y020605D03*
X032310Y020605D03*
X030525Y020740D03*
X030525Y020070D03*
X030550Y019365D03*
X030550Y018695D03*
X031765Y017505D03*
X032435Y017505D03*
X035200Y018195D03*
X035200Y018865D03*
X035150Y019495D03*
X035150Y020165D03*
X037265Y016555D03*
X037935Y016555D03*
X039550Y008715D03*
X039550Y008045D03*
X038310Y008530D03*
X037640Y008530D03*
X035375Y008140D03*
X035375Y007470D03*
X033335Y009180D03*
X032665Y009180D03*
X025125Y009140D03*
X025125Y008470D03*
X027540Y019180D03*
X028210Y019180D03*
X045250Y013115D03*
X045250Y012445D03*
X045250Y011740D03*
X045250Y011070D03*
D13*
X040933Y011431D03*
X040933Y012179D03*
X040067Y011805D03*
X039292Y015106D03*
X039292Y015854D03*
X040158Y015480D03*
X035942Y020056D03*
X036808Y020430D03*
X035942Y020804D03*
X035308Y027181D03*
X035308Y027929D03*
X034442Y027555D03*
X039167Y007354D03*
X039167Y006606D03*
X040033Y006980D03*
X010308Y013806D03*
X010308Y014554D03*
X009442Y014180D03*
X006058Y020306D03*
X006058Y021054D03*
X005192Y020680D03*
D14*
X008376Y018872D03*
X009124Y018872D03*
X008750Y019738D03*
X014000Y010738D03*
X013626Y009872D03*
X014374Y009872D03*
X022875Y016497D03*
X022501Y017363D03*
X023249Y017363D03*
X025251Y021622D03*
X025999Y021622D03*
X025625Y022488D03*
X027876Y020247D03*
X028250Y021113D03*
X028624Y020247D03*
X033876Y025747D03*
X034250Y026613D03*
X034624Y025747D03*
X039376Y020997D03*
X040124Y020997D03*
X039750Y021863D03*
X038374Y020613D03*
X037626Y020613D03*
X038000Y019747D03*
X014000Y036497D03*
X013626Y037363D03*
X014374Y037363D03*
X012124Y037613D03*
X011376Y037613D03*
X011750Y036747D03*
D15*
X015000Y033236D03*
X015000Y030874D03*
D16*
X006750Y024021D03*
X006750Y022839D03*
X005125Y022839D03*
X005125Y024021D03*
X005375Y033089D03*
X005375Y034271D03*
X005125Y015146D03*
X005125Y013964D03*
X006750Y013964D03*
X006750Y015146D03*
X040375Y033589D03*
X040375Y034771D03*
X041250Y031396D03*
X041250Y030214D03*
X044000Y030214D03*
X044000Y031396D03*
X041750Y026771D03*
X041750Y025589D03*
X041750Y022396D03*
X041750Y021214D03*
X043250Y016521D03*
X043250Y015339D03*
X044875Y015339D03*
X044875Y016521D03*
X044875Y007771D03*
X044875Y006589D03*
X043250Y006589D03*
X043250Y007771D03*
D17*
X026591Y015805D03*
X025409Y015805D03*
X034409Y049430D03*
X035591Y049430D03*
D18*
X034625Y008204D03*
X034125Y008204D03*
X033625Y008204D03*
X033125Y008204D03*
X032625Y008204D03*
X032125Y008204D03*
X031625Y008204D03*
X031625Y006156D03*
X032125Y006156D03*
X032625Y006156D03*
X033125Y006156D03*
X033625Y006156D03*
X034125Y006156D03*
X034625Y006156D03*
M02*
