G75*
%MOIN*%
%OFA0B0*%
%FSLAX24Y24*%
%IPPOS*%
%LPD*%
%AMOC8*
5,1,8,0,0,1.08239X$1,22.5*
%
%ADD10C,0.1290*%
%ADD11C,0.1306*%
%ADD12C,0.1044*%
%ADD13C,0.0600*%
%ADD14R,0.0473X0.0434*%
%ADD15R,0.0591X0.1536*%
%ADD16R,0.1064X0.0591*%
%ADD17OC8,0.0800*%
%ADD18R,0.0434X0.0473*%
%ADD19R,0.1135X0.1135*%
%ADD20R,0.0749X0.0749*%
%ADD21OC8,0.0670*%
%ADD22C,0.0749*%
%ADD23C,0.0867*%
%ADD24C,0.0634*%
%ADD25C,0.0808*%
%ADD26R,0.1536X0.0591*%
%ADD27R,0.0640X0.0640*%
%ADD28R,0.1615X0.0670*%
%ADD29R,0.0670X0.1615*%
%ADD30OC8,0.0780*%
%ADD31OC8,0.0700*%
%ADD32C,0.1040*%
%ADD33OC8,0.1040*%
%ADD34R,0.0555X0.0555*%
%ADD35C,0.1020*%
%ADD36OC8,0.1250*%
%ADD37OC8,0.0940*%
%ADD38C,0.1220*%
%ADD39OC8,0.0555*%
%ADD40OC8,0.0460*%
%ADD41C,0.0560*%
%ADD42R,0.0808X0.0808*%
%ADD43R,0.0390X0.0390*%
%ADD44R,0.0436X0.0436*%
%ADD45C,0.0390*%
%ADD46C,0.0436*%
D10*
X003625Y001680D03*
X014125Y005680D03*
X046125Y001680D03*
X046125Y052680D03*
X003625Y052680D03*
D11*
X044578Y048305D03*
D12*
X042806Y048305D03*
X041625Y046455D03*
X040444Y048305D03*
D13*
X037950Y047471D03*
X037950Y049439D03*
X023134Y048580D03*
X021166Y048580D03*
X022134Y045080D03*
X020166Y045080D03*
D14*
X019460Y038930D03*
X018790Y038930D03*
X016335Y038930D03*
X015665Y038930D03*
X017415Y036305D03*
X017390Y035430D03*
X018060Y035430D03*
X018085Y036305D03*
X022290Y026055D03*
X022290Y025055D03*
X022960Y025055D03*
X022960Y026055D03*
X030015Y024905D03*
X030685Y024905D03*
X030835Y025805D03*
X030165Y025805D03*
X037665Y025805D03*
X038335Y025805D03*
X038310Y024755D03*
X037640Y024755D03*
X033435Y035330D03*
X032765Y035330D03*
X032790Y036305D03*
X033460Y036305D03*
X018260Y014505D03*
X017590Y014505D03*
X017515Y013480D03*
X018185Y013480D03*
D15*
X031775Y044999D03*
X031775Y047361D03*
D16*
X019807Y040430D03*
X018193Y040430D03*
X016807Y040430D03*
X015193Y040430D03*
D17*
X008750Y038680D03*
X020000Y028930D03*
X028750Y014055D03*
X028375Y012180D03*
X026125Y010180D03*
X027375Y009055D03*
X026125Y004680D03*
X045050Y032705D03*
X038875Y035555D03*
X038875Y036555D03*
X043475Y045605D03*
D18*
X033335Y034430D03*
X032665Y034430D03*
X030585Y023930D03*
X029915Y023930D03*
X022960Y024055D03*
X022290Y024055D03*
X017960Y034305D03*
X017290Y034305D03*
X009000Y040470D03*
X009000Y041140D03*
X017315Y012230D03*
X017985Y012230D03*
X037540Y023805D03*
X038210Y023805D03*
D19*
X040094Y025680D03*
X036156Y025680D03*
X032594Y025680D03*
X028656Y025680D03*
X025094Y025680D03*
X021156Y025680D03*
X020094Y036180D03*
X016156Y036180D03*
X031656Y036180D03*
X035594Y036180D03*
X035469Y013680D03*
X031531Y013680D03*
X020094Y013805D03*
X016156Y013805D03*
D20*
X017141Y010852D03*
X018125Y010852D03*
X019109Y010852D03*
X022141Y022727D03*
X023125Y022727D03*
X024109Y022727D03*
X029641Y022727D03*
X030625Y022727D03*
X031609Y022727D03*
X037141Y022727D03*
X038125Y022727D03*
X039109Y022727D03*
X034609Y033227D03*
X033625Y033227D03*
X032641Y033227D03*
X019109Y033227D03*
X018125Y033227D03*
X017141Y033227D03*
X032516Y010727D03*
X033500Y010727D03*
X034484Y010727D03*
D21*
X013125Y039430D03*
X013125Y040430D03*
X013125Y041430D03*
X013125Y042430D03*
X010125Y042430D03*
X010125Y041430D03*
X010125Y040430D03*
X010125Y039430D03*
D22*
X010869Y025957D03*
X009432Y025602D03*
X009432Y023988D03*
X007995Y023555D03*
X009334Y022374D03*
X007995Y021508D03*
X010869Y021153D03*
X010869Y023555D03*
X013468Y022374D03*
X013468Y024736D03*
X013468Y019933D03*
D23*
X006381Y025130D03*
D24*
X042011Y034802D03*
X042011Y035786D03*
X042011Y036574D03*
X042011Y037558D03*
D25*
X043078Y038767D03*
X043078Y033593D03*
D26*
X029931Y036430D03*
X027569Y036430D03*
X013056Y030055D03*
X010694Y030055D03*
X009819Y033430D03*
X012181Y033430D03*
D27*
X017375Y042680D03*
X017375Y043680D03*
X017375Y044680D03*
X017375Y046680D03*
X017375Y047680D03*
X017375Y048680D03*
X017375Y049680D03*
X022125Y039180D03*
X023125Y039180D03*
X024125Y039180D03*
X026125Y039180D03*
X027125Y039180D03*
X028125Y039180D03*
X029125Y039180D03*
X035516Y042305D03*
X037484Y042305D03*
X038891Y044055D03*
X040859Y044055D03*
X042266Y042555D03*
X044234Y042555D03*
X040859Y039930D03*
X038891Y039930D03*
X035984Y046430D03*
X034016Y046430D03*
X043266Y026305D03*
X045234Y026305D03*
X045234Y021805D03*
X043266Y021805D03*
X026984Y013305D03*
X025016Y013305D03*
X022234Y006180D03*
X020266Y006180D03*
X017984Y006180D03*
X016016Y006180D03*
D28*
X022602Y036430D03*
X025398Y036430D03*
X031252Y040230D03*
X034048Y040230D03*
D29*
X028375Y044757D03*
X028375Y047553D03*
X024850Y047578D03*
X024850Y044782D03*
D30*
X025125Y033180D03*
X025125Y032180D03*
X024125Y032180D03*
X024125Y033180D03*
X023125Y033180D03*
X023125Y032180D03*
X022125Y032180D03*
X022125Y033180D03*
X018625Y030180D03*
X018625Y029180D03*
X018625Y028180D03*
X018625Y027180D03*
X018625Y026180D03*
X018625Y025180D03*
X018625Y024180D03*
X018625Y023180D03*
X018625Y022180D03*
X018625Y021180D03*
X017625Y021180D03*
X017625Y022180D03*
X017625Y023180D03*
X017625Y024180D03*
X017625Y025180D03*
X017625Y026180D03*
X017625Y027180D03*
X017625Y028180D03*
X017625Y029180D03*
X017625Y030180D03*
X026125Y032180D03*
X026125Y033180D03*
X027125Y033180D03*
X027125Y032180D03*
X028125Y032180D03*
X028125Y033180D03*
X029125Y033180D03*
X029125Y032180D03*
X030125Y032180D03*
X030125Y033180D03*
X031125Y033180D03*
X031125Y032180D03*
D31*
X028125Y007180D03*
X028125Y006180D03*
X027125Y006180D03*
X027125Y007180D03*
X026125Y007180D03*
X026125Y006180D03*
X025125Y006180D03*
X025125Y007180D03*
D32*
X005625Y047930D03*
D33*
X007625Y047930D03*
D34*
X023275Y043205D03*
X024275Y043205D03*
X025275Y043205D03*
X026275Y043205D03*
X027275Y043205D03*
X028275Y043205D03*
D35*
X031775Y043092D03*
X031673Y049588D03*
X019862Y049588D03*
X019862Y043092D03*
D36*
X043295Y018680D03*
X043295Y014180D03*
X043195Y009980D03*
X043195Y005480D03*
X006555Y005680D03*
X006555Y010180D03*
X006555Y012680D03*
X006555Y017180D03*
D37*
X007798Y017180D03*
X010295Y017180D03*
X010295Y012680D03*
X007798Y012680D03*
X005298Y012680D03*
X005298Y010180D03*
X007798Y010180D03*
X010295Y010180D03*
X010295Y005680D03*
X007798Y005680D03*
X005298Y005680D03*
X005298Y017180D03*
X039555Y018680D03*
X042052Y018680D03*
X044552Y018680D03*
X044552Y014180D03*
X042052Y014180D03*
X039555Y014180D03*
X039455Y009980D03*
X041952Y009980D03*
X044452Y009980D03*
X044452Y005480D03*
X041952Y005480D03*
X039455Y005480D03*
D38*
X040695Y009140D03*
X040795Y017840D03*
X009055Y016340D03*
X009055Y009340D03*
D39*
X011625Y047180D03*
D40*
X010710Y045596D03*
X010041Y046265D03*
X009795Y047180D03*
X010041Y048095D03*
X010710Y048764D03*
X011625Y049010D03*
X012540Y048764D03*
X013209Y048095D03*
X013455Y047180D03*
X013209Y046265D03*
X012540Y045595D03*
X011625Y045350D03*
D41*
X008065Y031285D02*
X007545Y031285D01*
X007545Y030305D02*
X008065Y030305D01*
X008065Y029325D02*
X007545Y029325D01*
X005705Y029325D02*
X005185Y029325D01*
X005185Y030305D02*
X005705Y030305D01*
X005705Y031285D02*
X005185Y031285D01*
D42*
X025000Y014555D03*
X027000Y014555D03*
X027000Y012055D03*
X025000Y012055D03*
X022250Y007430D03*
X020250Y007430D03*
X018000Y007430D03*
X016000Y007430D03*
X016000Y004930D03*
X018000Y004930D03*
X020250Y004930D03*
X022250Y004930D03*
X043250Y020555D03*
X045250Y020555D03*
X045250Y023055D03*
X045250Y025055D03*
X043250Y025055D03*
X043250Y023055D03*
X043250Y027555D03*
X045250Y027555D03*
X040875Y038680D03*
X038875Y038680D03*
X038875Y041180D03*
X037500Y041055D03*
X038875Y042805D03*
X037500Y043555D03*
X036000Y045180D03*
X035500Y043555D03*
X034000Y045180D03*
X034000Y047680D03*
X036000Y047680D03*
X038875Y045305D03*
X040875Y045305D03*
X042250Y043805D03*
X040875Y042805D03*
X040875Y041180D03*
X042250Y041305D03*
X044250Y041305D03*
X044250Y043805D03*
X035500Y041055D03*
D43*
X035375Y039305D03*
X036125Y037430D03*
X036125Y033680D03*
X037125Y032055D03*
X038375Y033555D03*
X033375Y031680D03*
X032500Y031805D03*
X033250Y030930D03*
X031250Y031305D03*
X031125Y037430D03*
X031375Y038555D03*
X029000Y037430D03*
X026750Y037180D03*
X023250Y037430D03*
X020750Y037805D03*
X019875Y039680D03*
X015625Y034055D03*
X014000Y033430D03*
X013000Y034305D03*
X013000Y032180D03*
X012250Y031180D03*
X011000Y032305D03*
X008875Y031805D03*
X010750Y029055D03*
X009375Y028805D03*
X009125Y028180D03*
X008250Y026430D03*
X013375Y027680D03*
X013750Y026055D03*
X011625Y019555D03*
X012750Y016805D03*
X013000Y015180D03*
X014250Y016055D03*
X014625Y014555D03*
X016000Y016305D03*
X014250Y017930D03*
X014500Y018930D03*
X010500Y015180D03*
X009250Y015055D03*
X009375Y013180D03*
X007375Y011555D03*
X011875Y010430D03*
X012875Y009680D03*
X012125Y012305D03*
X015625Y009180D03*
X019125Y008055D03*
X020125Y010180D03*
X021875Y011680D03*
X023000Y013055D03*
X023625Y014930D03*
X024750Y016930D03*
X025500Y020055D03*
X028250Y018430D03*
X029250Y019930D03*
X031000Y017930D03*
X030875Y016180D03*
X033000Y017430D03*
X034375Y016805D03*
X032750Y019430D03*
X037125Y019180D03*
X038625Y019180D03*
X041125Y020305D03*
X040500Y016555D03*
X041000Y015305D03*
X042000Y015305D03*
X043625Y012430D03*
X045375Y009930D03*
X042375Y008055D03*
X040625Y006055D03*
X038375Y007930D03*
X039000Y009180D03*
X038625Y011305D03*
X037000Y010055D03*
X034125Y009805D03*
X033500Y009805D03*
X032125Y009930D03*
X031625Y009430D03*
X031250Y010555D03*
X030875Y011055D03*
X030250Y009805D03*
X029250Y010805D03*
X030500Y007430D03*
X031875Y007305D03*
X032625Y006930D03*
X033625Y007055D03*
X035250Y006055D03*
X036000Y005180D03*
X037500Y006680D03*
X032250Y005305D03*
X032250Y004680D03*
X029625Y005180D03*
X038500Y016055D03*
X045500Y018930D03*
X045375Y005555D03*
X021875Y017180D03*
X021125Y017805D03*
X019750Y016305D03*
X021125Y019680D03*
X020625Y030305D03*
X008000Y035305D03*
X005250Y039305D03*
D44*
X015250Y029305D03*
X020625Y023805D03*
X022750Y022055D03*
X024250Y021555D03*
X022125Y020180D03*
X020750Y020805D03*
X019500Y019680D03*
X023750Y016805D03*
X026625Y021180D03*
X027688Y021493D03*
X029000Y021930D03*
X029625Y021305D03*
X030625Y021805D03*
X032875Y021180D03*
X033375Y020680D03*
X033625Y021204D03*
X034625Y021555D03*
X034625Y022180D03*
X035250Y020680D03*
X034500Y020305D03*
X034375Y023430D03*
X034375Y024055D03*
X033750Y027180D03*
X032625Y028305D03*
X035000Y028680D03*
X036250Y027930D03*
X037250Y029180D03*
X037500Y030680D03*
X038500Y030680D03*
X040500Y028805D03*
X040625Y023305D03*
X038750Y021305D03*
X039125Y020180D03*
X032250Y016930D03*
X029000Y017805D03*
X026250Y023430D03*
X026375Y026180D03*
X027875Y027305D03*
X028625Y028055D03*
X027125Y029305D03*
X026375Y029055D03*
X025625Y030180D03*
X022000Y028930D03*
X024875Y042055D03*
X029875Y043305D03*
X033250Y049430D03*
X006750Y021930D03*
X007500Y019180D03*
X031125Y006055D03*
X036000Y012555D03*
D45*
X014875Y035180D03*
X015375Y037305D03*
X015750Y038180D03*
X014500Y038805D03*
X012125Y035305D03*
X010875Y035430D03*
X010250Y035430D03*
X010250Y037305D03*
X009375Y038055D03*
X007500Y038430D03*
X006375Y038930D03*
X005625Y038305D03*
X004875Y039930D03*
X007125Y040805D03*
X008750Y042180D03*
X007750Y043555D03*
X005750Y043055D03*
X006000Y036305D03*
X005875Y035305D03*
D46*
X006375Y043930D03*
X004825Y049180D03*
X012725Y044580D03*
M02*
