G75*
%MOIN*%
%OFA0B0*%
%FSLAX24Y24*%
%IPPOS*%
%LPD*%
%AMOC8*
5,1,8,0,0,1.08239X$1,22.5*
%
%ADD10C,0.1266*%
%ADD11C,0.1004*%
%ADD12C,0.0554*%
%ADD13C,0.0600*%
%ADD14C,0.1095*%
%ADD15C,0.0709*%
%ADD16C,0.0520*%
%ADD17C,0.0594*%
%ADD18C,0.0768*%
%ADD19C,0.0515*%
%ADD20C,0.1210*%
%ADD21C,0.0900*%
%ADD22C,0.0420*%
%ADD23C,0.0350*%
%ADD24C,0.0240*%
%ADD25C,0.0396*%
%ADD26C,0.0160*%
%ADD27C,0.0500*%
%ADD28C,0.0400*%
%ADD29C,0.0120*%
%ADD30C,0.0320*%
D10*
X044578Y048305D03*
D11*
X042806Y048305D03*
X041625Y046455D03*
X040444Y048305D03*
D12*
X037950Y047471D03*
X037950Y049439D03*
X023134Y048580D03*
X021166Y048580D03*
X022134Y045080D03*
X020166Y045080D03*
D13*
X017375Y044680D03*
X017375Y043680D03*
X017375Y042680D03*
X017375Y046680D03*
X017375Y047680D03*
X017375Y048680D03*
X017375Y049680D03*
X007625Y047930D03*
X005625Y047930D03*
X008750Y038680D03*
X017625Y030180D03*
X017625Y029180D03*
X017625Y028180D03*
X017625Y027180D03*
X017625Y026180D03*
X017625Y025180D03*
X017625Y024180D03*
X017625Y023180D03*
X017625Y022180D03*
X017625Y021180D03*
X018625Y021180D03*
X018625Y022180D03*
X018625Y023180D03*
X018625Y024180D03*
X018625Y025180D03*
X018625Y026180D03*
X018625Y027180D03*
X018625Y028180D03*
X018625Y029180D03*
X018625Y030180D03*
X020000Y028930D03*
X022125Y032180D03*
X022125Y033180D03*
X023125Y033180D03*
X023125Y032180D03*
X024125Y032180D03*
X024125Y033180D03*
X025125Y033180D03*
X025125Y032180D03*
X026125Y032180D03*
X026125Y033180D03*
X027125Y033180D03*
X027125Y032180D03*
X028125Y032180D03*
X028125Y033180D03*
X029125Y033180D03*
X029125Y032180D03*
X030125Y032180D03*
X030125Y033180D03*
X031125Y033180D03*
X031125Y032180D03*
X029125Y039180D03*
X028125Y039180D03*
X027125Y039180D03*
X026125Y039180D03*
X024125Y039180D03*
X023125Y039180D03*
X022125Y039180D03*
X034016Y046430D03*
X035984Y046430D03*
X038891Y044055D03*
X040859Y044055D03*
X042266Y042555D03*
X044234Y042555D03*
X043475Y045605D03*
X040859Y039930D03*
X038891Y039930D03*
X037484Y042305D03*
X035516Y042305D03*
X038875Y036555D03*
X038875Y035555D03*
X045050Y032705D03*
X045234Y026305D03*
X043266Y026305D03*
X043266Y021805D03*
X045234Y021805D03*
X028750Y014055D03*
X028375Y012180D03*
X026984Y013305D03*
X025016Y013305D03*
X026125Y010180D03*
X027375Y009055D03*
X027125Y007180D03*
X027125Y006180D03*
X026125Y006180D03*
X026125Y007180D03*
X025125Y007180D03*
X025125Y006180D03*
X026125Y004680D03*
X028125Y006180D03*
X028125Y007180D03*
X022234Y006180D03*
X020266Y006180D03*
X017984Y006180D03*
X016016Y006180D03*
D14*
X016156Y013805D03*
X020094Y013805D03*
X021156Y025680D03*
X025094Y025680D03*
X028656Y025680D03*
X032594Y025680D03*
X036156Y025680D03*
X040094Y025680D03*
X035594Y036180D03*
X031656Y036180D03*
X020094Y036180D03*
X016156Y036180D03*
X031531Y013680D03*
X035469Y013680D03*
D15*
X034484Y010727D03*
X033500Y010727D03*
X032516Y010727D03*
X031609Y022727D03*
X030625Y022727D03*
X029641Y022727D03*
X024109Y022727D03*
X023125Y022727D03*
X022141Y022727D03*
X013468Y022374D03*
X013468Y024736D03*
X010869Y023555D03*
X009432Y023988D03*
X007995Y023555D03*
X009334Y022374D03*
X007995Y021508D03*
X010869Y021153D03*
X013468Y019933D03*
X010869Y025957D03*
X009432Y025602D03*
X017141Y033227D03*
X018125Y033227D03*
X019109Y033227D03*
X032641Y033227D03*
X033625Y033227D03*
X034609Y033227D03*
X037141Y022727D03*
X038125Y022727D03*
X039109Y022727D03*
X019109Y010852D03*
X018125Y010852D03*
X017141Y010852D03*
D16*
X007805Y029325D03*
X007805Y030305D03*
X007805Y031285D03*
X005445Y031285D03*
X005445Y030305D03*
X005445Y029325D03*
X010125Y039430D03*
X010125Y040430D03*
X010125Y041430D03*
X010125Y042430D03*
X013125Y042430D03*
X013125Y041430D03*
X013125Y040430D03*
X013125Y039430D03*
D17*
X042011Y037558D03*
X042011Y036574D03*
X042011Y035786D03*
X042011Y034802D03*
D18*
X043078Y033593D03*
X043078Y038767D03*
X042250Y041305D03*
X040875Y041180D03*
X040875Y042805D03*
X042250Y043805D03*
X040875Y045305D03*
X038875Y045305D03*
X037500Y043555D03*
X038875Y042805D03*
X038875Y041180D03*
X037500Y041055D03*
X035500Y041055D03*
X035500Y043555D03*
X036000Y045180D03*
X034000Y045180D03*
X034000Y047680D03*
X036000Y047680D03*
X044250Y043805D03*
X044250Y041305D03*
X040875Y038680D03*
X038875Y038680D03*
X043250Y027555D03*
X045250Y027555D03*
X045250Y025055D03*
X045250Y023055D03*
X043250Y023055D03*
X043250Y025055D03*
X043250Y020555D03*
X045250Y020555D03*
X027000Y014555D03*
X025000Y014555D03*
X025000Y012055D03*
X027000Y012055D03*
X022250Y007430D03*
X020250Y007430D03*
X018000Y007430D03*
X016000Y007430D03*
X016000Y004930D03*
X018000Y004930D03*
X020250Y004930D03*
X022250Y004930D03*
D19*
X023275Y043205D03*
X024275Y043205D03*
X025275Y043205D03*
X026275Y043205D03*
X027275Y043205D03*
X028275Y043205D03*
X011625Y047180D03*
D20*
X006555Y017180D03*
X006555Y012680D03*
X006555Y010180D03*
X006555Y005680D03*
X043195Y005480D03*
X043195Y009980D03*
X043295Y014180D03*
X043295Y018680D03*
D21*
X005298Y005680D03*
X007798Y005680D03*
X010295Y005680D03*
X010295Y010180D03*
X007798Y010180D03*
X005298Y010180D03*
X005298Y012680D03*
X007798Y012680D03*
X010295Y012680D03*
X010295Y017180D03*
X007798Y017180D03*
X005298Y017180D03*
X039555Y018680D03*
X042052Y018680D03*
X044552Y018680D03*
X044552Y014180D03*
X042052Y014180D03*
X039555Y014180D03*
X039455Y009980D03*
X041952Y009980D03*
X044452Y009980D03*
X044452Y005480D03*
X041952Y005480D03*
X039455Y005480D03*
D22*
X012540Y045595D03*
X013209Y046265D03*
X013455Y047180D03*
X013209Y048095D03*
X012540Y048764D03*
X011625Y049010D03*
X010710Y048764D03*
X010041Y048095D03*
X009795Y047180D03*
X010041Y046265D03*
X010710Y045596D03*
X011625Y045350D03*
D23*
X008750Y042180D03*
X007750Y043555D03*
X005750Y043055D03*
X007125Y040805D03*
X006375Y038930D03*
X005625Y038305D03*
X005250Y039305D03*
X004875Y039930D03*
X007500Y038430D03*
X009375Y038055D03*
X010250Y037305D03*
X010250Y035430D03*
X010875Y035430D03*
X012125Y035305D03*
X013000Y034305D03*
X014000Y033430D03*
X013000Y032180D03*
X012250Y031180D03*
X011000Y032305D03*
X008875Y031805D03*
X010750Y029055D03*
X009375Y028805D03*
X009125Y028180D03*
X008250Y026430D03*
X013375Y027680D03*
X013750Y026055D03*
X011625Y019555D03*
X012750Y016805D03*
X013000Y015180D03*
X014250Y016055D03*
X014625Y014555D03*
X016000Y016305D03*
X014250Y017930D03*
X014500Y018930D03*
X010500Y015180D03*
X009250Y015055D03*
X009375Y013180D03*
X007375Y011555D03*
X011875Y010430D03*
X012875Y009680D03*
X012125Y012305D03*
X015625Y009180D03*
X019125Y008055D03*
X020125Y010180D03*
X021875Y011680D03*
X023000Y013055D03*
X023625Y014930D03*
X024750Y016930D03*
X025500Y020055D03*
X028250Y018430D03*
X029250Y019930D03*
X031000Y017930D03*
X030875Y016180D03*
X033000Y017430D03*
X034375Y016805D03*
X032750Y019430D03*
X037125Y019180D03*
X038625Y019180D03*
X041125Y020305D03*
X040500Y016555D03*
X041000Y015305D03*
X042000Y015305D03*
X043625Y012430D03*
X045375Y009930D03*
X042375Y008055D03*
X040625Y006055D03*
X038375Y007930D03*
X039000Y009180D03*
X038625Y011305D03*
X037000Y010055D03*
X034125Y009805D03*
X033500Y009805D03*
X032125Y009930D03*
X031625Y009430D03*
X031250Y010555D03*
X030875Y011055D03*
X030250Y009805D03*
X029250Y010805D03*
X030500Y007430D03*
X031875Y007305D03*
X032625Y006930D03*
X033625Y007055D03*
X035250Y006055D03*
X036000Y005180D03*
X037500Y006680D03*
X032250Y005305D03*
X032250Y004680D03*
X029625Y005180D03*
X038500Y016055D03*
X045500Y018930D03*
X045375Y005555D03*
X033250Y030930D03*
X033375Y031680D03*
X032500Y031805D03*
X031250Y031305D03*
X036125Y033680D03*
X037125Y032055D03*
X038375Y033555D03*
X036125Y037430D03*
X035375Y039305D03*
X031375Y038555D03*
X031125Y037430D03*
X029000Y037430D03*
X026750Y037180D03*
X023250Y037430D03*
X020750Y037805D03*
X019875Y039680D03*
X015750Y038180D03*
X015375Y037305D03*
X014500Y038805D03*
X014875Y035180D03*
X015625Y034055D03*
X020625Y030305D03*
X021125Y019680D03*
X021125Y017805D03*
X021875Y017180D03*
X019750Y016305D03*
X008000Y035305D03*
X006000Y036305D03*
X005875Y035305D03*
D24*
X005250Y034805D02*
X005250Y037305D01*
X004625Y037930D01*
X004625Y039680D01*
X004875Y039930D01*
X006375Y038930D02*
X007000Y039555D01*
X009000Y039555D01*
X010000Y038555D01*
X011375Y037180D01*
X011750Y037180D01*
X013125Y035805D01*
X013250Y035805D01*
X013750Y035305D01*
X013750Y034055D01*
X013375Y033680D01*
X013375Y032930D01*
X013875Y032430D01*
X013875Y027305D01*
X014625Y026555D01*
X014625Y025555D01*
X015500Y024680D01*
X015500Y019055D01*
X017375Y017180D01*
X019625Y017180D01*
X021000Y015680D01*
X021000Y015055D01*
X022000Y014055D01*
X022000Y012930D01*
X024375Y010555D01*
X024375Y010180D01*
X024375Y007930D01*
X025125Y007180D01*
X025125Y007430D01*
X022250Y007430D02*
X022250Y008180D01*
X021625Y008805D01*
X019375Y008805D01*
X018750Y009555D01*
X017250Y009555D01*
X016375Y010305D01*
X016375Y011680D01*
X016875Y012180D01*
X016875Y012305D01*
X018000Y013430D01*
X018000Y014305D01*
X016000Y016305D01*
X017625Y017680D02*
X016125Y019180D01*
X016125Y024930D01*
X015250Y025805D01*
X015250Y026680D01*
X016125Y027555D01*
X016125Y029055D01*
X016125Y030180D01*
X017250Y031305D01*
X019000Y031305D01*
X019625Y030680D01*
X019625Y029680D01*
X019375Y029430D01*
X018875Y029430D01*
X018625Y029180D01*
X018625Y028180D02*
X018750Y028055D01*
X019375Y028055D01*
X017625Y030180D02*
X017000Y030180D01*
X016625Y029805D01*
X016625Y027180D01*
X016000Y026555D01*
X016000Y025930D01*
X016625Y025305D01*
X016625Y019305D01*
X017625Y018305D01*
X019875Y018305D01*
X022500Y015680D01*
X026250Y015680D01*
X027000Y014930D01*
X027000Y014555D01*
X024750Y016930D02*
X025375Y017555D01*
X027250Y019430D01*
X028250Y019430D01*
X028750Y018930D01*
X030750Y018930D01*
X031250Y018430D01*
X031500Y018430D01*
X031750Y018180D01*
X031750Y016180D01*
X033875Y013930D01*
X033875Y013680D01*
X035875Y011555D01*
X035875Y010055D01*
X035125Y009180D01*
X035125Y008555D01*
X035125Y008055D01*
X036000Y006680D01*
X038125Y004555D01*
X039875Y004555D01*
X040625Y005305D01*
X040625Y006055D01*
X039125Y008055D02*
X038750Y008555D01*
X038250Y008555D01*
X038125Y008680D01*
X038125Y009805D01*
X039250Y010930D01*
X039250Y012430D01*
X039500Y012680D01*
X039875Y012680D01*
X041125Y013930D01*
X041125Y014430D01*
X042000Y015305D01*
X041000Y015305D02*
X036750Y015305D01*
X035750Y016305D01*
X034000Y016305D01*
X033750Y016555D01*
X033750Y017805D01*
X033375Y018180D01*
X033000Y018180D01*
X031375Y019805D01*
X029625Y021305D02*
X028500Y021305D01*
X028125Y021680D01*
X027904Y021459D01*
X027721Y021459D01*
X027688Y021493D01*
X026875Y019930D02*
X029250Y019930D01*
X031000Y017930D02*
X031125Y017805D01*
X031125Y017555D01*
X030375Y016805D01*
X030875Y016180D02*
X030875Y015930D01*
X031500Y015305D01*
X031875Y015305D01*
X033375Y013805D01*
X033375Y013430D01*
X034500Y012180D01*
X035250Y011430D01*
X035250Y011305D01*
X035250Y010305D01*
X034250Y009180D01*
X033875Y009180D01*
X033375Y009555D01*
X033500Y009805D01*
X031875Y007430D02*
X031875Y007305D01*
X032375Y006805D02*
X032625Y006930D01*
X032375Y005305D02*
X032250Y005305D01*
X032375Y005305D02*
X032875Y005305D01*
X033000Y005180D01*
X036000Y005180D01*
X039125Y008055D02*
X042375Y008055D01*
X045000Y015055D02*
X045500Y015555D01*
X045500Y018930D01*
X045250Y023055D02*
X045000Y023305D01*
X044250Y024055D01*
X041250Y024055D01*
X040500Y024680D01*
X040125Y024180D02*
X040125Y024055D01*
X040125Y023805D01*
X040625Y023305D01*
X036125Y021180D02*
X035000Y021180D01*
X034750Y020930D01*
X034125Y020930D01*
X033875Y021180D01*
X033774Y021180D01*
X033625Y021204D01*
X033375Y023430D02*
X033250Y023555D01*
X030960Y023555D01*
X030585Y023180D01*
X030585Y022768D01*
X030625Y022727D01*
X033375Y023430D02*
X034375Y023430D01*
X036250Y027930D02*
X036250Y028430D01*
X036250Y028805D01*
X035750Y029180D01*
X034375Y029180D01*
X034125Y029055D01*
X028500Y029055D01*
X027875Y028430D01*
X027875Y027305D01*
X028250Y030430D02*
X029375Y030430D01*
X028250Y030430D02*
X027875Y030805D01*
X027125Y031555D01*
X027125Y032180D01*
X027125Y033180D02*
X027125Y034055D01*
X030500Y037430D01*
X031125Y037430D01*
X031375Y038555D02*
X029750Y038555D01*
X029500Y038305D01*
X025625Y038305D01*
X023625Y036305D01*
X023500Y036305D01*
X020875Y033680D01*
X020875Y031930D01*
X021625Y031180D01*
X022500Y031180D01*
X023125Y031805D01*
X023125Y032180D01*
X023125Y033180D02*
X023125Y034930D01*
X025875Y037680D01*
X028750Y037680D01*
X029000Y037430D01*
X026125Y032180D02*
X026125Y031555D01*
X022000Y028930D02*
X021625Y029305D01*
X021625Y030430D01*
X019109Y032946D01*
X019109Y033227D01*
X013000Y034055D02*
X012500Y033555D01*
X012500Y032555D01*
X012375Y032430D01*
X012375Y031305D01*
X012250Y031180D01*
X011750Y032055D02*
X011750Y033180D01*
X010250Y034680D01*
X010250Y035430D01*
X013000Y034305D02*
X013000Y034055D01*
X011750Y032055D02*
X010750Y031055D01*
X010750Y029055D01*
X009125Y028180D02*
X008875Y028180D01*
X008500Y028555D01*
X007125Y028555D01*
X006625Y029055D01*
X006625Y033430D01*
X005250Y034805D01*
X007125Y040805D02*
X007125Y042930D01*
X007750Y043555D01*
X009500Y026805D02*
X013000Y026805D01*
X013750Y026055D01*
X009500Y026805D02*
X009125Y026430D01*
X008250Y026430D01*
X011625Y019555D02*
X011500Y019305D01*
X011500Y019180D01*
X011500Y018430D01*
X011500Y018055D01*
X011500Y016430D01*
X011000Y015930D01*
X010375Y015930D01*
X010000Y015555D01*
X010000Y015180D01*
X009875Y015055D01*
X009250Y015055D01*
X012125Y012305D02*
X011875Y012055D01*
X011875Y010430D01*
X015000Y012930D02*
X015000Y014055D01*
X015125Y014180D01*
X015125Y018430D01*
X014875Y018680D01*
X014750Y018680D01*
X014500Y018930D01*
X017625Y017680D02*
X018375Y017680D01*
X019875Y017680D01*
X022375Y015055D01*
X022500Y014930D01*
X023625Y014930D01*
X021875Y017180D02*
X021875Y018930D01*
X021750Y018930D01*
X021125Y019555D01*
X021125Y019680D01*
X022125Y020180D02*
X022125Y022711D01*
X022141Y022727D01*
X023125Y022727D02*
X023250Y022602D01*
X023250Y022305D01*
X024000Y021555D01*
X024250Y021555D01*
X026125Y023555D02*
X026250Y023430D01*
X026125Y023555D02*
X021500Y023555D01*
X021375Y023430D01*
X021000Y023430D01*
X020625Y023805D01*
X019125Y023055D02*
X018750Y023055D01*
X018625Y023180D01*
X020500Y018430D02*
X021125Y017805D01*
X015000Y012930D02*
X015750Y011430D01*
X015750Y010180D01*
X017000Y008930D01*
X018375Y008930D01*
X019125Y008180D01*
X019125Y008055D01*
X034375Y016805D02*
X034500Y017055D01*
X034500Y017305D01*
X035750Y018555D01*
X035750Y018930D01*
X034625Y030180D02*
X037875Y030180D01*
X040625Y030180D01*
X040625Y033055D01*
X040500Y033305D01*
X038625Y033305D01*
X038375Y033555D01*
D25*
X038500Y030680D03*
X037500Y030680D03*
X037250Y029180D03*
X036250Y027930D03*
X035000Y028680D03*
X033750Y027180D03*
X032625Y028305D03*
X028625Y028055D03*
X027875Y027305D03*
X026375Y026180D03*
X026250Y023430D03*
X027688Y021493D03*
X026625Y021180D03*
X024250Y021555D03*
X022750Y022055D03*
X022125Y020180D03*
X020750Y020805D03*
X019500Y019680D03*
X020625Y023805D03*
X022000Y028930D03*
X025625Y030180D03*
X026375Y029055D03*
X027125Y029305D03*
X029000Y021930D03*
X029625Y021305D03*
X030625Y021805D03*
X032875Y021180D03*
X033375Y020680D03*
X033625Y021204D03*
X034625Y021555D03*
X034625Y022180D03*
X035250Y020680D03*
X034500Y020305D03*
X034375Y023430D03*
X034375Y024055D03*
X038750Y021305D03*
X039125Y020180D03*
X040625Y023305D03*
X040500Y028805D03*
X032250Y016930D03*
X029000Y017805D03*
X023750Y016805D03*
X031125Y006055D03*
X036000Y012555D03*
X015250Y029305D03*
X006750Y021930D03*
X007500Y019180D03*
X024875Y042055D03*
X029875Y043305D03*
X033250Y049430D03*
X012725Y044580D03*
X006375Y043930D03*
X004825Y049180D03*
D26*
X005625Y038305D02*
X006500Y038305D01*
X007375Y037430D01*
X009500Y037430D01*
X010625Y036305D01*
X010625Y036180D01*
X010875Y035930D01*
X010875Y035430D01*
X018625Y027180D02*
X019750Y027180D01*
X020250Y026680D01*
X020250Y024930D01*
X021000Y024180D01*
X033500Y024180D01*
X033875Y024555D01*
X034750Y024555D01*
X035125Y024180D01*
X040125Y024180D01*
X040500Y024680D02*
X035250Y024680D01*
X035000Y024930D01*
X033500Y024930D01*
X033250Y024680D01*
X022750Y024680D01*
X022125Y025305D01*
X022125Y026180D01*
X021500Y026805D01*
X020750Y026805D01*
X019625Y028055D01*
X019375Y028055D01*
X019625Y026680D02*
X019875Y026430D01*
X019875Y023805D01*
X021125Y022555D01*
X021625Y022055D01*
X021625Y021430D01*
X021625Y020555D01*
X021625Y019930D01*
X022000Y019555D01*
X025750Y019555D01*
X026625Y020430D01*
X030750Y020430D01*
X031375Y019805D01*
X031375Y020805D02*
X027625Y020805D01*
X027250Y021180D01*
X027250Y021430D01*
X027000Y021680D01*
X026375Y021680D01*
X025750Y021055D01*
X023875Y021055D01*
X023250Y021680D01*
X023125Y021680D01*
X022750Y022055D01*
X021125Y019680D02*
X021125Y019555D01*
X021750Y018930D01*
X021875Y018930D01*
X024476Y018930D01*
X025351Y018930D01*
X025875Y018930D01*
X026750Y019805D01*
X026875Y019930D01*
X031375Y020805D02*
X032375Y020805D01*
X033000Y020180D01*
X033875Y020180D01*
X034024Y020329D01*
X034024Y021156D01*
X034000Y021180D01*
X033625Y021204D01*
X034625Y022180D02*
X034625Y022305D01*
X035000Y022680D01*
X035875Y023555D01*
X036250Y023555D01*
X036375Y023555D01*
X037585Y023555D01*
X038210Y022930D01*
X038210Y022812D01*
X038125Y022727D01*
X038750Y021305D02*
X036250Y021305D01*
X036125Y021180D01*
X036375Y019680D02*
X036125Y019430D01*
X036125Y019305D01*
X035750Y018930D01*
X036375Y019680D02*
X039625Y019680D01*
X040250Y020305D01*
X041125Y020305D01*
X042000Y015305D02*
X044000Y015305D01*
X044250Y015055D01*
X045000Y015055D01*
X040500Y028805D02*
X039750Y029680D01*
X031125Y029680D01*
X028000Y029680D01*
X026125Y031555D01*
X028125Y033180D02*
X028125Y033680D01*
X028500Y034055D01*
X031625Y034055D01*
X031875Y033805D01*
X031875Y032555D01*
X031875Y032430D01*
X031875Y031430D01*
X032750Y030555D01*
X032875Y030555D01*
X034375Y030555D01*
X035125Y031305D01*
X037750Y031305D01*
X038375Y030680D01*
X038500Y030680D01*
X034625Y030180D02*
X029625Y030180D01*
X029375Y030430D01*
X019500Y020555D02*
X019250Y020805D01*
X019250Y022930D01*
X019125Y023055D01*
X019500Y020555D02*
X020500Y019555D01*
X020500Y018430D01*
X012625Y009930D02*
X012875Y009680D01*
X012625Y009930D02*
X011250Y009930D01*
X011125Y010055D01*
X011125Y010680D01*
X010625Y011180D01*
X010125Y011180D01*
X009750Y010805D01*
X009250Y010805D01*
X009125Y010805D01*
X008750Y011180D01*
X008750Y012305D01*
X008750Y013180D01*
X008125Y013805D01*
X007875Y013805D01*
X007000Y013805D01*
X006500Y013805D01*
X004250Y016055D01*
X004250Y017805D01*
X004875Y018430D01*
X006250Y018430D01*
X006750Y018930D01*
X006750Y019180D01*
X006750Y021930D01*
D27*
X020250Y039305D02*
X019875Y039680D01*
X020250Y039305D01*
X019875Y039680D02*
X019125Y040430D01*
X013125Y040430D01*
X011625Y041680D02*
X011625Y043080D01*
X010225Y044480D01*
X007525Y044480D01*
X007025Y043980D01*
X007025Y043880D01*
X006900Y043605D01*
X006525Y043105D01*
X006425Y043105D01*
X006350Y043055D01*
X005750Y043055D01*
X028275Y043205D02*
X028275Y042680D01*
X029400Y041555D01*
X031500Y041555D01*
X033750Y039305D01*
X035375Y039305D01*
X036125Y037430D02*
X040375Y037430D01*
X040503Y037558D01*
X042011Y037558D01*
D28*
X026125Y010180D02*
X024375Y010180D01*
X013125Y040430D02*
X012875Y040430D01*
X011625Y041680D01*
X011625Y042680D01*
D29*
X020000Y028930D02*
X019750Y028680D01*
X018000Y028680D01*
X017625Y028305D01*
X017625Y028180D01*
X017250Y026680D02*
X017000Y026430D01*
X017000Y025805D01*
X017625Y025180D01*
X017250Y026680D02*
X019625Y026680D01*
X019250Y023680D02*
X019125Y023680D01*
X018125Y023680D01*
X018000Y023555D01*
X017625Y023180D01*
X019250Y023680D02*
X020250Y022680D01*
X020250Y020930D01*
X020375Y020805D01*
X020750Y020805D01*
X030375Y016805D02*
X030375Y013055D01*
X031375Y012055D01*
X031375Y011555D01*
X031875Y011055D01*
X031875Y010555D01*
X031125Y009680D01*
X031125Y008180D01*
X031875Y007430D01*
X032375Y006805D02*
X030000Y006805D01*
X028375Y008305D01*
X026000Y008305D01*
X025125Y007430D01*
X033375Y031680D02*
X035000Y031680D01*
X037625Y034305D01*
X038875Y035555D01*
X039000Y035430D01*
X039500Y035430D01*
X039856Y035786D01*
X042011Y035786D01*
X041992Y036555D02*
X042011Y036574D01*
X041992Y036555D02*
X038875Y036555D01*
X038750Y036430D01*
X038500Y036430D01*
X037875Y035805D01*
X037875Y035430D01*
X036125Y033680D01*
X040125Y038055D02*
X040875Y038680D01*
X040875Y039914D01*
X040859Y039930D01*
X040859Y041164D01*
X040875Y041180D01*
X040125Y038055D02*
X030500Y038055D01*
X029250Y036930D01*
X027500Y036930D01*
X025125Y034555D01*
X025125Y033180D01*
D30*
X029000Y017805D02*
X027625Y016430D01*
X024250Y016430D01*
X023875Y016805D01*
X023750Y016805D01*
M02*
