%
M48
M72
T01C0.0190
T02C0.0220
T03C0.0236
T04C0.0315
T05C0.0320
T06C0.0354
T07C0.0394
T08C0.0400
T09C0.0472
T10C0.0512
T11C0.0600
T12C0.0669
T13C0.0730
T14C0.0810
T15C0.0827
T16C0.0866
T17C0.0980
T18C0.1180
T19C0.1250
%
T01
X7375Y11555
X9375Y13180
X9250Y15055
X10500Y15180
X12750Y16805
X13000Y15180
X14250Y16055
X14625Y14555
X16000Y16305
X14250Y17930
X14500Y18930
X11625Y19555
X13750Y26055
X13375Y27680
X10750Y29055
X9375Y28805
X9125Y28180
X8250Y26430
X12250Y31180
X13000Y32180
X14000Y33430
X13000Y34305
X12125Y35305
X10875Y35430
X10250Y35430
X10250Y37305
X9375Y38055
X7500Y38430
X6375Y38930
X5625Y38305
X5250Y39305
X4875Y39930
X7125Y40805
X8750Y42180
X7750Y43555
X5750Y43055
X6000Y36305
X5875Y35305
X8000Y35305
X8875Y31805
X11000Y32305
X14875Y35180
X15625Y34055
X15375Y37305
X15750Y38180
X14500Y38805
X19875Y39680
X20750Y37805
X23250Y37430
X26750Y37180
X29000Y37430
X31125Y37430
X31375Y38555
X35375Y39305
X36125Y37430
X36125Y33680
X37125Y32055
X38375Y33555
X33375Y31680
X32500Y31805
X33250Y30930
X31250Y31305
X41125Y20305
X38625Y19180
X37125Y19180
X38500Y16055
X40500Y16555
X41000Y15305
X42000Y15305
X43625Y12430
X45375Y9930
X42375Y8055
X40625Y6055
X38375Y7930
X39000Y9180
X38625Y11305
X37000Y10055
X34125Y9805
X33500Y9805
X32125Y9930
X31625Y9430
X31250Y10555
X30875Y11055
X30250Y9805
X29250Y10805
X30500Y7430
X31875Y7305
X32625Y6930
X33625Y7055
X35250Y6055
X36000Y5180
X37500Y6680
X32250Y5305
X32250Y4680
X29625Y5180
X23000Y13055
X21875Y11680
X20125Y10180
X19125Y8055
X15625Y9180
X12875Y9680
X11875Y10430
X12125Y12305
X19750Y16305
X21125Y17805
X21875Y17180
X23625Y14930
X24750Y16930
X25500Y20055
X28250Y18430
X29250Y19930
X31000Y17930
X30875Y16180
X33000Y17430
X34375Y16805
X32750Y19430
X21125Y19680
X20625Y30305
X45500Y18930
X45375Y5555
T02
X12540Y45595
X13209Y46265
X13455Y47180
X13209Y48095
X12540Y48764
X11625Y49010
X10710Y48764
X10041Y48095
X9795Y47180
X10041Y46265
X10710Y45596
X11625Y45350
T03
X12725Y44580
X6375Y43930
X4825Y49180
X15250Y29305
X20625Y23805
X22750Y22055
X24250Y21555
X22125Y20180
X20750Y20805
X19500Y19680
X23750Y16805
X26625Y21180
X27688Y21493
X29000Y21930
X29625Y21305
X30625Y21805
X32875Y21180
X33375Y20680
X33625Y21204
X34625Y21555
X34625Y22180
X35250Y20680
X34500Y20305
X34375Y23430
X34375Y24055
X33750Y27180
X32625Y28305
X35000Y28680
X36250Y27930
X37250Y29180
X37500Y30680
X38500Y30680
X40500Y28805
X40625Y23305
X38750Y21305
X39125Y20180
X32250Y16930
X29000Y17805
X26250Y23430
X26375Y26180
X27875Y27305
X28625Y28055
X27125Y29305
X26375Y29055
X25625Y30180
X22000Y28930
X24875Y42055
X29875Y43305
X33250Y49430
X6750Y21930
X7500Y19180
X31125Y6055
X36000Y12555
T04
X28275Y43205
X27275Y43205
X26275Y43205
X25275Y43205
X24275Y43205
X23275Y43205
X11625Y47180
T05
X10125Y42430
X10125Y41430
X10125Y40430
X10125Y39430
X13125Y39430
X13125Y40430
X13125Y41430
X13125Y42430
X7805Y31285
X7805Y30305
X7805Y29325
X5445Y29325
X5445Y30305
X5445Y31285
T06
X20166Y45080
X22134Y45080
X21166Y48580
X23134Y48580
X37950Y49439
X37950Y47471
T07
X42011Y37558
X42011Y36574
X42011Y35786
X42011Y34802
T08
X45050Y32705
X45234Y26305
X43266Y26305
X43266Y21805
X45234Y21805
X38875Y35555
X38875Y36555
X38891Y39930
X40859Y39930
X42266Y42555
X40859Y44055
X38891Y44055
X37484Y42305
X35516Y42305
X35984Y46430
X34016Y46430
X29125Y39180
X28125Y39180
X27125Y39180
X26125Y39180
X24125Y39180
X23125Y39180
X22125Y39180
X17375Y42680
X17375Y43680
X17375Y44680
X17375Y46680
X17375Y47680
X17375Y48680
X17375Y49680
X7625Y47930
X5625Y47930
X8750Y38680
X17625Y30180
X17625Y29180
X17625Y28180
X17625Y27180
X17625Y26180
X17625Y25180
X17625Y24180
X17625Y23180
X17625Y22180
X17625Y21180
X18625Y21180
X18625Y22180
X18625Y23180
X18625Y24180
X18625Y25180
X18625Y26180
X18625Y27180
X18625Y28180
X18625Y29180
X18625Y30180
X20000Y28930
X22125Y32180
X22125Y33180
X23125Y33180
X23125Y32180
X24125Y32180
X24125Y33180
X25125Y33180
X25125Y32180
X26125Y32180
X26125Y33180
X27125Y33180
X27125Y32180
X28125Y32180
X28125Y33180
X29125Y33180
X29125Y32180
X30125Y32180
X30125Y33180
X31125Y33180
X31125Y32180
X43475Y45605
X44234Y42555
X28750Y14055
X28375Y12180
X26984Y13305
X25016Y13305
X26125Y10180
X27375Y9055
X27125Y7180
X27125Y6180
X26125Y6180
X26125Y7180
X25125Y7180
X25125Y6180
X26125Y4680
X28125Y6180
X28125Y7180
X22234Y6180
X20266Y6180
X17984Y6180
X16016Y6180
T09
X17141Y10852
X18125Y10852
X19109Y10852
X13468Y19933
X13468Y22374
X13468Y24736
X10869Y23555
X9432Y23988
X7995Y23555
X9334Y22374
X7995Y21508
X10869Y21153
X9432Y25602
X10869Y25957
X17141Y33227
X18125Y33227
X19109Y33227
X22141Y22727
X23125Y22727
X24109Y22727
X29641Y22727
X30625Y22727
X31609Y22727
X37141Y22727
X38125Y22727
X39109Y22727
X34609Y33227
X33625Y33227
X32641Y33227
X32516Y10727
X33500Y10727
X34484Y10727
T10
X27000Y12055
X25000Y12055
X25000Y14555
X27000Y14555
X22250Y7430
X20250Y7430
X18000Y7430
X16000Y7430
X16000Y4930
X18000Y4930
X20250Y4930
X22250Y4930
X43250Y20555
X45250Y20555
X45250Y23055
X45250Y25055
X43250Y25055
X43250Y23055
X43250Y27555
X45250Y27555
X43078Y33593
X43078Y38767
X42250Y41305
X40875Y41180
X40875Y42805
X42250Y43805
X40875Y45305
X38875Y45305
X37500Y43555
X38875Y42805
X38875Y41180
X37500Y41055
X35500Y41055
X35500Y43555
X36000Y45180
X34000Y45180
X34000Y47680
X36000Y47680
X44250Y43805
X44250Y41305
X40875Y38680
X38875Y38680
T11
X39555Y18680
X42052Y18680
X44552Y18680
X44552Y14180
X42052Y14180
X39555Y14180
X39455Y9980
X41952Y9980
X44452Y9980
X44452Y5480
X41952Y5480
X39455Y5480
X10295Y5680
X7798Y5680
X5298Y5680
X5298Y10180
X5298Y12680
X7798Y12680
X10295Y12680
X10295Y10180
X7798Y10180
X7798Y17180
X10295Y17180
X5298Y17180
T12
X40444Y48305
X41625Y46455
X42806Y48305
T13
X35594Y36180
X31656Y36180
X32594Y25680
X36156Y25680
X40094Y25680
X35469Y13680
X31531Y13680
X28656Y25680
X25094Y25680
X21156Y25680
X20094Y36180
X16156Y36180
X16156Y13805
X20094Y13805
T14
X6555Y12680
X6555Y10180
X6555Y5680
X6555Y17180
X43295Y18680
X43295Y14180
X43195Y9980
X43195Y5480
T15
X6381Y25130
T16
X44578Y48305
T17
X31673Y49588
X31775Y43092
X19862Y43092
X19862Y49588
T18
X40795Y17840
X40695Y9140
X9055Y9340
X9055Y16340
T19
X3625Y1680
X14125Y5680
X46125Y1680
X46125Y52680
X3625Y52680
M30
