G75*
%MOIN*%
%OFA0B0*%
%FSLAX24Y24*%
%IPPOS*%
%LPD*%
%AMOC8*
5,1,8,0,0,1.08239X$1,22.5*
%
%ADD10C,0.1266*%
%ADD11C,0.1004*%
%ADD12R,0.0866X0.0236*%
%ADD13R,0.0394X0.0433*%
%ADD14R,0.0433X0.0394*%
%ADD15C,0.0560*%
%ADD16OC8,0.0760*%
%ADD17R,0.0551X0.0394*%
%ADD18R,0.0394X0.0551*%
%ADD19R,0.1095X0.1095*%
%ADD20R,0.0709X0.0709*%
%ADD21OC8,0.0630*%
%ADD22C,0.0709*%
%ADD23C,0.0594*%
%ADD24C,0.0768*%
%ADD25R,0.0600X0.0600*%
%ADD26OC8,0.0740*%
%ADD27OC8,0.0660*%
%ADD28C,0.1000*%
%ADD29OC8,0.1000*%
%ADD30R,0.0515X0.0515*%
%ADD31OC8,0.1210*%
%ADD32OC8,0.0900*%
%ADD33OC8,0.0515*%
%ADD34OC8,0.0420*%
%ADD35R,0.0551X0.1496*%
%ADD36C,0.0520*%
%ADD37R,0.1024X0.0591*%
%ADD38R,0.0591X0.1024*%
%ADD39R,0.0236X0.0866*%
%ADD40R,0.0768X0.0768*%
%ADD41C,0.0400*%
%ADD42C,0.0500*%
%ADD43C,0.0240*%
%ADD44R,0.0350X0.0350*%
%ADD45C,0.0160*%
%ADD46R,0.0396X0.0396*%
%ADD47C,0.0350*%
%ADD48C,0.0120*%
%ADD49C,0.0700*%
%ADD50C,0.0320*%
%ADD51C,0.0396*%
D10*
X044578Y048305D03*
D11*
X042806Y048305D03*
X041625Y046455D03*
X040444Y048305D03*
D12*
X035399Y024680D03*
X035399Y024180D03*
X035399Y023680D03*
X035399Y023180D03*
X035399Y022680D03*
X035399Y022180D03*
X035399Y021680D03*
X033774Y019880D03*
X033774Y019380D03*
X033774Y018880D03*
X033774Y018380D03*
X031726Y018380D03*
X031726Y018880D03*
X031726Y019380D03*
X031726Y019880D03*
X033351Y021680D03*
X033351Y022180D03*
X033351Y022680D03*
X033351Y023180D03*
X033351Y023680D03*
X033351Y024180D03*
X033351Y024680D03*
X026524Y020680D03*
X026524Y020180D03*
X026524Y019680D03*
X026524Y019180D03*
X026524Y018680D03*
X026524Y018180D03*
X026524Y017680D03*
X024476Y017680D03*
X024476Y018180D03*
X024476Y018680D03*
X024476Y019180D03*
X024476Y019680D03*
X024476Y020180D03*
X024476Y020680D03*
X008149Y039930D03*
X008149Y040430D03*
X008149Y040930D03*
X008149Y041430D03*
X006101Y041430D03*
X006101Y040930D03*
X006101Y040430D03*
X006101Y039930D03*
D13*
X005125Y036015D03*
X005125Y035345D03*
X006790Y035680D03*
X007460Y035680D03*
X008790Y035680D03*
X009460Y035680D03*
X009665Y032305D03*
X010335Y032305D03*
X010335Y031305D03*
X009665Y031305D03*
X007085Y027680D03*
X006415Y027680D03*
X007790Y015055D03*
X008460Y015055D03*
X013665Y013180D03*
X014335Y013180D03*
X010300Y008540D03*
X010300Y007870D03*
X022875Y019220D03*
X022875Y019890D03*
X023790Y015805D03*
X024460Y015805D03*
X029915Y008805D03*
X030585Y008805D03*
X030460Y006180D03*
X029790Y006180D03*
X030790Y005180D03*
X031460Y005180D03*
X033125Y005265D03*
X033125Y004595D03*
X034290Y005055D03*
X034960Y005055D03*
X037640Y007255D03*
X038310Y007255D03*
X038360Y009455D03*
X037690Y009455D03*
X037690Y010430D03*
X038360Y010430D03*
X036210Y010555D03*
X035540Y010555D03*
X035335Y009430D03*
X034665Y009430D03*
X037265Y015605D03*
X037935Y015605D03*
X039115Y016880D03*
X039785Y016880D03*
X037985Y017530D03*
X037985Y018430D03*
X037315Y018430D03*
X037315Y017530D03*
X036375Y022220D03*
X036375Y022890D03*
X041290Y024180D03*
X041960Y024180D03*
X041835Y028180D03*
X041165Y028180D03*
X039960Y031180D03*
X039290Y031180D03*
X039210Y034430D03*
X038540Y034430D03*
X043290Y032305D03*
X043960Y032305D03*
X042210Y016180D03*
X041540Y016180D03*
X041415Y006680D03*
X042085Y006680D03*
X016375Y042845D03*
X016375Y043515D03*
X014125Y043140D03*
X014125Y042470D03*
X012660Y043780D03*
X011990Y043780D03*
X014690Y045880D03*
X015360Y045880D03*
X015660Y047180D03*
X014990Y047180D03*
X014990Y048180D03*
X015660Y048180D03*
X015660Y049180D03*
X014990Y049180D03*
X014035Y049905D03*
X013365Y049905D03*
X009535Y049780D03*
X008865Y049780D03*
X008500Y044640D03*
X008500Y043970D03*
D14*
X008325Y045645D03*
X008325Y046315D03*
X006425Y045715D03*
X006425Y045045D03*
X004625Y041515D03*
X004625Y040845D03*
X005290Y037180D03*
X005960Y037180D03*
X006790Y037180D03*
X007460Y037180D03*
X008790Y037180D03*
X009460Y037180D03*
X006875Y034140D03*
X006875Y033470D03*
X008250Y027890D03*
X008250Y027220D03*
X007500Y025890D03*
X007500Y025220D03*
X012000Y017140D03*
X012000Y016470D03*
X011960Y015430D03*
X011290Y015430D03*
X011290Y014430D03*
X011960Y014430D03*
X011375Y008515D03*
X011375Y007845D03*
X006960Y008680D03*
X006290Y008680D03*
X025125Y008470D03*
X025125Y009140D03*
X032665Y009180D03*
X033335Y009180D03*
X035375Y008140D03*
X035375Y007470D03*
X037640Y008530D03*
X038310Y008530D03*
X039550Y008715D03*
X039550Y008045D03*
X045250Y011070D03*
X045250Y011740D03*
X045250Y012445D03*
X045250Y013115D03*
X037935Y016555D03*
X037265Y016555D03*
X035200Y018195D03*
X035200Y018865D03*
X035150Y019495D03*
X035150Y020165D03*
X032435Y017505D03*
X031765Y017505D03*
X030550Y018695D03*
X030550Y019365D03*
X030525Y020070D03*
X030525Y020740D03*
X031640Y020605D03*
X032310Y020605D03*
X032335Y021555D03*
X031665Y021555D03*
X028210Y019180D03*
X027540Y019180D03*
X014085Y035180D03*
X013415Y035180D03*
X022040Y040180D03*
X022710Y040180D03*
X024250Y040720D03*
X024250Y041390D03*
X025500Y041390D03*
X025500Y040720D03*
X037000Y048970D03*
X037000Y049640D03*
X007925Y049915D03*
X007925Y049245D03*
X006725Y049245D03*
X006725Y049915D03*
X005625Y049915D03*
X005625Y049245D03*
D15*
X020166Y045080D03*
X022134Y045080D03*
X021166Y048580D03*
X023134Y048580D03*
X037950Y049439D03*
X037950Y047471D03*
D16*
X043475Y045605D03*
X038875Y036555D03*
X038875Y035555D03*
X045050Y032705D03*
X028750Y014055D03*
X028375Y012180D03*
X026125Y010180D03*
X027375Y009055D03*
X026125Y004680D03*
X020000Y028930D03*
X008750Y038680D03*
D17*
X006058Y021054D03*
X006058Y020306D03*
X005192Y020680D03*
X009442Y014180D03*
X010308Y013806D03*
X010308Y014554D03*
X034442Y027555D03*
X035308Y027929D03*
X035308Y027181D03*
X035942Y020804D03*
X036808Y020430D03*
X035942Y020056D03*
X039292Y015854D03*
X039292Y015106D03*
X040158Y015480D03*
X040933Y012179D03*
X040933Y011431D03*
X040067Y011805D03*
X039167Y007354D03*
X039167Y006606D03*
X040033Y006980D03*
D18*
X038000Y019747D03*
X037626Y020613D03*
X038374Y020613D03*
X039376Y020997D03*
X040124Y020997D03*
X039750Y021863D03*
X034624Y025747D03*
X034250Y026613D03*
X033876Y025747D03*
X028624Y020247D03*
X028250Y021113D03*
X027876Y020247D03*
X025999Y021622D03*
X025251Y021622D03*
X025625Y022488D03*
X023249Y017363D03*
X022501Y017363D03*
X022875Y016497D03*
X014000Y010738D03*
X013626Y009872D03*
X014374Y009872D03*
X009124Y018872D03*
X008376Y018872D03*
X008750Y019738D03*
X011750Y036747D03*
X011376Y037613D03*
X012124Y037613D03*
X013626Y037363D03*
X014374Y037363D03*
X014000Y036497D03*
D19*
X016156Y036180D03*
X020094Y036180D03*
X021156Y025680D03*
X025094Y025680D03*
X028656Y025680D03*
X032594Y025680D03*
X036156Y025680D03*
X040094Y025680D03*
X035594Y036180D03*
X031656Y036180D03*
X031531Y013680D03*
X035469Y013680D03*
X020094Y013805D03*
X016156Y013805D03*
D20*
X017141Y010852D03*
X018125Y010852D03*
X019109Y010852D03*
X022141Y022727D03*
X023125Y022727D03*
X024109Y022727D03*
X029641Y022727D03*
X030625Y022727D03*
X031609Y022727D03*
X037141Y022727D03*
X038125Y022727D03*
X039109Y022727D03*
X034609Y033227D03*
X033625Y033227D03*
X032641Y033227D03*
X019109Y033227D03*
X018125Y033227D03*
X017141Y033227D03*
X032516Y010727D03*
X033500Y010727D03*
X034484Y010727D03*
D21*
X013125Y039430D03*
X013125Y040430D03*
X013125Y041430D03*
X013125Y042430D03*
X010125Y042430D03*
X010125Y041430D03*
X010125Y040430D03*
X010125Y039430D03*
D22*
X010869Y025957D03*
X009432Y025602D03*
X009432Y023988D03*
X007995Y023555D03*
X009334Y022374D03*
X007995Y021508D03*
X010869Y021153D03*
X010869Y023555D03*
X013468Y022374D03*
X013468Y024736D03*
X013468Y019933D03*
D23*
X042011Y034802D03*
X042011Y035786D03*
X042011Y036574D03*
X042011Y037558D03*
D24*
X043078Y038767D03*
X043078Y033593D03*
D25*
X040859Y039930D03*
X038891Y039930D03*
X037484Y042305D03*
X035516Y042305D03*
X038891Y044055D03*
X040859Y044055D03*
X042266Y042555D03*
X044234Y042555D03*
X035984Y046430D03*
X034016Y046430D03*
X029125Y039180D03*
X028125Y039180D03*
X027125Y039180D03*
X026125Y039180D03*
X024125Y039180D03*
X023125Y039180D03*
X022125Y039180D03*
X017375Y042680D03*
X017375Y043680D03*
X017375Y044680D03*
X017375Y046680D03*
X017375Y047680D03*
X017375Y048680D03*
X017375Y049680D03*
X043266Y026305D03*
X045234Y026305D03*
X045234Y021805D03*
X043266Y021805D03*
X026984Y013305D03*
X025016Y013305D03*
X022234Y006180D03*
X020266Y006180D03*
X017984Y006180D03*
X016016Y006180D03*
D26*
X017625Y021180D03*
X017625Y022180D03*
X017625Y023180D03*
X017625Y024180D03*
X017625Y025180D03*
X017625Y026180D03*
X017625Y027180D03*
X017625Y028180D03*
X017625Y029180D03*
X017625Y030180D03*
X018625Y030180D03*
X018625Y029180D03*
X018625Y028180D03*
X018625Y027180D03*
X018625Y026180D03*
X018625Y025180D03*
X018625Y024180D03*
X018625Y023180D03*
X018625Y022180D03*
X018625Y021180D03*
X022125Y032180D03*
X022125Y033180D03*
X023125Y033180D03*
X023125Y032180D03*
X024125Y032180D03*
X024125Y033180D03*
X025125Y033180D03*
X025125Y032180D03*
X026125Y032180D03*
X026125Y033180D03*
X027125Y033180D03*
X027125Y032180D03*
X028125Y032180D03*
X028125Y033180D03*
X029125Y033180D03*
X029125Y032180D03*
X030125Y032180D03*
X030125Y033180D03*
X031125Y033180D03*
X031125Y032180D03*
D27*
X028125Y007180D03*
X028125Y006180D03*
X027125Y006180D03*
X027125Y007180D03*
X026125Y007180D03*
X026125Y006180D03*
X025125Y006180D03*
X025125Y007180D03*
D28*
X005625Y047930D03*
D29*
X007625Y047930D03*
D30*
X023275Y043205D03*
X024275Y043205D03*
X025275Y043205D03*
X026275Y043205D03*
X027275Y043205D03*
X028275Y043205D03*
D31*
X043295Y018680D03*
X043295Y014180D03*
X043195Y009980D03*
X043195Y005480D03*
X006555Y005680D03*
X006555Y010180D03*
X006555Y012680D03*
X006555Y017180D03*
D32*
X005298Y005680D03*
X007798Y005680D03*
X010295Y005680D03*
X010295Y010180D03*
X007798Y010180D03*
X005298Y010180D03*
X005298Y012680D03*
X007798Y012680D03*
X010295Y012680D03*
X010295Y017180D03*
X007798Y017180D03*
X005298Y017180D03*
X039555Y018680D03*
X042052Y018680D03*
X044552Y018680D03*
X044552Y014180D03*
X042052Y014180D03*
X039555Y014180D03*
X039455Y009980D03*
X041952Y009980D03*
X044452Y009980D03*
X044452Y005480D03*
X041952Y005480D03*
X039455Y005480D03*
D33*
X011625Y047180D03*
D34*
X010710Y045596D03*
X010041Y046265D03*
X009795Y047180D03*
X010041Y048095D03*
X010710Y048764D03*
X011625Y049010D03*
X012540Y048764D03*
X013209Y048095D03*
X013455Y047180D03*
X013209Y046265D03*
X012540Y045595D03*
X011625Y045350D03*
D35*
X015000Y033236D03*
X015000Y030874D03*
D36*
X008065Y031285D02*
X007545Y031285D01*
X007545Y030305D02*
X008065Y030305D01*
X008065Y029325D02*
X007545Y029325D01*
X005705Y029325D02*
X005185Y029325D01*
X005185Y030305D02*
X005705Y030305D01*
X005705Y031285D02*
X005185Y031285D01*
D37*
X005375Y033011D03*
X005375Y034349D03*
X005125Y024099D03*
X005125Y022761D03*
X006750Y022761D03*
X006750Y024099D03*
X006750Y015224D03*
X006750Y013886D03*
X005125Y013886D03*
X005125Y015224D03*
X040375Y033511D03*
X040375Y034849D03*
X041250Y031474D03*
X041250Y030136D03*
X044000Y030136D03*
X044000Y031474D03*
X041750Y026849D03*
X041750Y025511D03*
X041750Y022474D03*
X041750Y021136D03*
X043250Y016599D03*
X043250Y015261D03*
X044875Y015261D03*
X044875Y016599D03*
X044875Y007849D03*
X044875Y006511D03*
X043250Y006511D03*
X043250Y007849D03*
D38*
X026669Y015805D03*
X025331Y015805D03*
X034331Y049430D03*
X035669Y049430D03*
D39*
X034625Y008204D03*
X034125Y008204D03*
X033625Y008204D03*
X033125Y008204D03*
X032625Y008204D03*
X032125Y008204D03*
X031625Y008204D03*
X031625Y006156D03*
X032125Y006156D03*
X032625Y006156D03*
X033125Y006156D03*
X033625Y006156D03*
X034125Y006156D03*
X034625Y006156D03*
D40*
X027000Y012055D03*
X025000Y012055D03*
X025000Y014555D03*
X027000Y014555D03*
X022250Y007430D03*
X020250Y007430D03*
X018000Y007430D03*
X016000Y007430D03*
X016000Y004930D03*
X018000Y004930D03*
X020250Y004930D03*
X022250Y004930D03*
X043250Y020555D03*
X045250Y020555D03*
X045250Y023055D03*
X045250Y025055D03*
X043250Y025055D03*
X043250Y023055D03*
X043250Y027555D03*
X045250Y027555D03*
X040875Y038680D03*
X038875Y038680D03*
X038875Y041180D03*
X037500Y041055D03*
X038875Y042805D03*
X037500Y043555D03*
X036000Y045180D03*
X035500Y043555D03*
X034000Y045180D03*
X034000Y047680D03*
X036000Y047680D03*
X038875Y045305D03*
X040875Y045305D03*
X042250Y043805D03*
X040875Y042805D03*
X040875Y041180D03*
X042250Y041305D03*
X044250Y041305D03*
X044250Y043805D03*
X035500Y041055D03*
D41*
X023125Y039805D02*
X022750Y040180D01*
X022750Y040220D02*
X022750Y040930D01*
X022040Y040180D02*
X022040Y039265D01*
X016540Y043680D02*
X016375Y043515D01*
X016375Y042845D02*
X016375Y042805D01*
X014125Y042470D02*
X014125Y040805D01*
X014125Y043140D02*
X013960Y043305D01*
X011875Y039555D02*
X012750Y038555D01*
X013250Y038055D01*
X014000Y038055D01*
X014374Y037681D01*
X014374Y037363D01*
X005750Y042055D02*
X005750Y043055D01*
D42*
X008500Y043555D02*
X009500Y042555D01*
X010000Y042555D01*
X010125Y042430D01*
X010500Y043555D02*
X010500Y043930D01*
X010500Y043555D02*
X011250Y042805D01*
X013125Y042805D01*
X013625Y043305D01*
X013875Y043305D01*
X013960Y043305D01*
X013125Y042805D02*
X013125Y042430D01*
X014125Y040805D02*
X013750Y040430D01*
X013125Y040430D01*
X014500Y038805D02*
X015193Y039498D01*
X015193Y040430D01*
X016500Y042680D02*
X016375Y042805D01*
X016500Y042680D02*
X017375Y042680D01*
X018875Y041180D01*
X021250Y041180D01*
X022000Y040430D01*
X022750Y040930D02*
X021750Y041930D01*
X021625Y041930D01*
X019500Y041930D01*
X017750Y043680D01*
X017375Y043680D01*
X016540Y043680D01*
X019875Y039680D02*
X020750Y038805D01*
X020750Y037805D01*
X022125Y039180D02*
X022040Y039265D01*
X023125Y039180D02*
X023125Y039805D01*
X024250Y040720D02*
X025500Y040720D01*
X026665Y040720D01*
X027250Y041305D01*
X027250Y043180D01*
X027275Y043205D01*
X028275Y043205D02*
X028275Y040830D01*
X027250Y039805D01*
X027250Y039305D01*
X027125Y039180D01*
X027125Y038430D01*
X026125Y037430D01*
X023250Y037430D01*
X024250Y043180D02*
X024275Y043205D01*
X015625Y034055D02*
X015000Y033430D01*
X014806Y033430D02*
X014000Y033430D01*
X013000Y032180D02*
X011750Y033430D01*
X008875Y033430D01*
X007805Y032360D01*
X007805Y031285D01*
X008125Y031180D02*
X008750Y030555D01*
X008750Y029305D01*
X008750Y028930D01*
X008250Y028430D01*
X008250Y027890D01*
X007500Y025220D02*
X007500Y024805D01*
X007125Y024430D01*
X007000Y024305D01*
X006831Y024180D01*
X006750Y024099D01*
X015000Y030874D02*
X015694Y030874D01*
X017000Y032180D01*
X017000Y033086D01*
X017141Y033227D01*
X008500Y043555D02*
X008500Y043970D01*
X034000Y047680D02*
X034000Y047805D01*
X034000Y048555D01*
X034331Y049011D01*
X034331Y049430D01*
X035669Y049430D02*
X036044Y049474D01*
X036375Y049680D01*
X036835Y049680D01*
X037000Y049640D01*
X035375Y039305D02*
X036125Y038555D01*
X036125Y037430D01*
D43*
X036625Y036805D02*
X036625Y031430D01*
X037125Y032055D02*
X037875Y032055D01*
X038000Y031930D01*
X040250Y031930D01*
X040625Y032305D01*
X043290Y032305D01*
X043960Y032305D02*
X044000Y032265D01*
X044000Y031474D01*
X044044Y030180D02*
X044000Y030136D01*
X041250Y030136D01*
X041206Y031430D02*
X040500Y031430D01*
X040250Y031180D01*
X039960Y031180D01*
X039290Y031180D02*
X039000Y031180D01*
X038625Y031180D01*
X038375Y031180D01*
X038125Y031180D01*
X038375Y033555D02*
X038375Y034140D01*
X038540Y034430D01*
X039210Y034430D02*
X039335Y034515D01*
X039625Y034805D01*
X040331Y034805D01*
X040375Y034849D01*
X040375Y033511D02*
X041331Y033511D01*
X041875Y034055D01*
X041875Y034666D01*
X042011Y034802D01*
X045050Y032705D02*
X045050Y030480D01*
X044625Y030180D01*
X044044Y030180D01*
X041835Y028180D02*
X041835Y028015D01*
X041875Y027180D01*
X042000Y026974D01*
X041750Y026849D01*
X041165Y028180D02*
X040790Y028180D01*
X041750Y025511D02*
X041581Y025055D01*
X043250Y025055D01*
X041960Y024180D02*
X041960Y022934D01*
X041750Y022474D01*
X041750Y021136D02*
X041625Y020805D01*
X041125Y020305D01*
X041750Y021136D02*
X041794Y021136D01*
X042250Y020430D01*
X042875Y020430D01*
X043250Y020555D01*
X043375Y020305D01*
X044000Y019680D01*
X045125Y019680D01*
X045500Y019305D01*
X045500Y018930D01*
X045250Y020555D02*
X045250Y021664D01*
X045234Y021805D01*
X045234Y023164D01*
X045250Y023055D01*
X042052Y018680D02*
X041750Y018680D01*
X041375Y019055D01*
X040875Y019055D01*
X040375Y019555D01*
X039000Y019555D01*
X038625Y019180D01*
X038000Y019747D02*
X037992Y019755D01*
X037750Y019755D01*
X037125Y019180D01*
X037315Y018430D02*
X036750Y018430D01*
X036515Y018195D01*
X035200Y018195D01*
X035185Y018180D01*
X034750Y018180D01*
X034550Y018380D01*
X033774Y018380D01*
X033789Y018865D02*
X033774Y018880D01*
X033789Y018865D02*
X035200Y018865D01*
X035150Y018915D01*
X035150Y019495D01*
X034500Y019555D02*
X034500Y019930D01*
X034500Y020305D01*
X035150Y020165D02*
X035150Y020780D01*
X035250Y020680D01*
X035942Y021137D02*
X035399Y021680D01*
X035942Y021137D02*
X035942Y020804D01*
X036808Y020988D02*
X036808Y020430D01*
X036808Y020988D02*
X037125Y021305D01*
X038000Y021305D01*
X038750Y022055D01*
X039125Y022430D01*
X039266Y022571D01*
X039109Y022727D01*
X039266Y022571D02*
X039750Y022086D01*
X039750Y021863D01*
X039125Y020180D02*
X038875Y020180D01*
X038442Y020613D01*
X038374Y020613D01*
X039555Y018680D02*
X039555Y017500D01*
X039875Y017180D01*
X039875Y016970D01*
X039785Y016880D01*
X039125Y016870D02*
X039125Y016430D01*
X039250Y016305D01*
X040250Y016305D01*
X040500Y016555D01*
X041125Y016805D02*
X040733Y015805D01*
X040158Y015480D01*
X040375Y014930D02*
X039593Y014930D01*
X039292Y015106D01*
X038426Y015106D01*
X038125Y014805D01*
X037625Y014805D01*
X037250Y015180D01*
X037250Y015590D01*
X037265Y015605D01*
X037935Y015605D02*
X037935Y016055D01*
X038500Y016055D01*
X037935Y016055D02*
X037935Y016555D01*
X037315Y016605D02*
X037315Y017530D01*
X037985Y017530D02*
X037985Y018430D01*
X039305Y018430D01*
X039555Y018680D01*
X039115Y016880D02*
X039115Y016440D01*
X039250Y016305D01*
X039292Y016263D01*
X039292Y015854D01*
X039125Y016870D02*
X039115Y016880D01*
X037315Y016605D02*
X037265Y016555D01*
X036000Y016305D02*
X036000Y015305D01*
X037000Y014305D01*
X037000Y012805D01*
X037815Y011990D01*
X037690Y010430D01*
X038360Y010430D02*
X038360Y009455D01*
X037690Y009455D02*
X037640Y009530D01*
X037640Y008530D01*
X038310Y008530D02*
X038310Y007930D01*
X038375Y007930D01*
X038310Y007930D02*
X038310Y007255D01*
X037640Y007255D02*
X037640Y007070D01*
X037500Y006680D01*
X037640Y007040D02*
X038250Y006555D01*
X039116Y006555D01*
X039167Y006606D01*
X039167Y007354D02*
X039550Y007737D01*
X039550Y008045D01*
X039540Y008055D01*
X039250Y008055D01*
X039000Y008305D01*
X039000Y009180D01*
X039455Y008810D02*
X039550Y008715D01*
X039455Y008810D02*
X039455Y009980D01*
X039005Y010430D01*
X038360Y010430D01*
X038625Y011305D02*
X039125Y011805D01*
X039375Y011805D01*
X040067Y011805D01*
X040933Y011431D02*
X041751Y011431D01*
X042250Y011930D01*
X042250Y012055D01*
X043250Y011055D01*
X044000Y011055D01*
X044050Y011005D01*
X044500Y010555D01*
X044500Y010028D01*
X044452Y009980D01*
X045375Y009930D02*
X045375Y010930D01*
X045250Y011070D01*
X045250Y011740D02*
X045250Y011930D01*
X045125Y012055D01*
X044000Y012055D01*
X043625Y012430D01*
X042250Y012055D02*
X042050Y012255D01*
X042250Y012055D01*
X042050Y012255D02*
X040750Y013555D01*
X040750Y014555D01*
X040375Y014930D01*
X041000Y015305D02*
X041540Y015845D01*
X041540Y016180D01*
X042210Y016180D02*
X042210Y016390D01*
X042500Y016680D01*
X043169Y016680D01*
X043250Y016599D01*
X043206Y015305D02*
X042000Y015305D01*
X043206Y015305D02*
X043250Y015261D01*
X041750Y017305D02*
X041125Y016805D01*
X041750Y017305D02*
X044875Y017305D01*
X044875Y016599D01*
X044875Y015261D02*
X045375Y014761D01*
X045375Y013805D01*
X045250Y013680D01*
X045250Y013115D01*
X045250Y012445D02*
X045250Y012055D01*
X045250Y011740D01*
X045250Y012055D01*
X044169Y008555D02*
X042000Y008555D01*
X040425Y006980D01*
X040033Y006980D01*
X040625Y006055D02*
X041250Y006680D01*
X041415Y006680D01*
X042085Y006680D02*
X043375Y006680D01*
X043500Y006555D01*
X043294Y006555D01*
X043250Y006511D01*
X043250Y007849D02*
X042581Y007849D01*
X042375Y008055D01*
X044169Y008555D02*
X044875Y007849D01*
X044875Y006511D02*
X045375Y006011D01*
X045375Y005555D01*
X037640Y007040D02*
X037640Y007070D01*
X037640Y007255D01*
X035375Y008140D02*
X035311Y008204D01*
X034125Y008204D02*
X034125Y008055D01*
X033335Y009180D02*
X033335Y009640D01*
X033500Y009805D01*
X034484Y010696D02*
X035250Y009930D01*
X035375Y009805D01*
X035375Y009470D01*
X035335Y009430D01*
X035625Y010470D02*
X035540Y010555D01*
X035500Y010595D01*
X035500Y010805D01*
X036000Y011305D01*
X036000Y012555D01*
X036210Y010555D02*
X036500Y010555D01*
X037000Y010055D01*
X034484Y010696D02*
X034484Y010727D01*
X030875Y011055D02*
X029500Y011055D01*
X029250Y010805D01*
X027000Y012055D02*
X026984Y012071D01*
X026984Y013305D01*
X027000Y013321D01*
X027000Y014555D01*
X026669Y015474D02*
X026000Y014805D01*
X025250Y014805D01*
X025000Y014555D01*
X025000Y013321D01*
X025016Y013305D01*
X025016Y012071D01*
X025000Y012055D01*
X024000Y010855D02*
X024050Y010430D01*
X024085Y010180D01*
X025125Y009140D01*
X025125Y008470D02*
X025125Y007180D01*
X025125Y006180D02*
X024125Y006180D01*
X023625Y006680D01*
X023625Y006930D01*
X023625Y008180D01*
X023125Y008680D01*
X017250Y008680D01*
X015625Y010305D01*
X015625Y011890D01*
X014335Y013180D01*
X014375Y013220D01*
X014375Y013805D01*
X013000Y015180D01*
X012500Y015680D02*
X012500Y014680D01*
X012250Y014430D01*
X011960Y014430D01*
X011290Y014430D02*
X011290Y015430D01*
X010540Y015430D01*
X010415Y015305D01*
X010375Y014680D01*
X010374Y014679D01*
X010308Y014554D01*
X010374Y014929D01*
X010500Y015180D01*
X010308Y013806D02*
X011125Y013055D01*
X011125Y012055D01*
X011308Y011872D01*
X011750Y011430D01*
X013750Y011430D01*
X013775Y011455D01*
X013713Y011518D01*
X014000Y011230D01*
X014000Y010738D01*
X013626Y009872D02*
X013626Y009306D01*
X013575Y009255D01*
X013650Y009180D01*
X014200Y009180D01*
X015625Y009180D01*
X016000Y007430D02*
X016016Y007414D01*
X016016Y006180D01*
X016000Y006664D01*
X016000Y004930D01*
X018000Y004930D02*
X018000Y006164D01*
X017984Y006180D01*
X018000Y006196D01*
X018000Y006664D01*
X018000Y007430D01*
X020250Y007430D02*
X020250Y004930D01*
X022250Y004930D02*
X022250Y006664D01*
X022234Y006180D01*
X022234Y007289D01*
X022250Y007430D01*
X020125Y010180D02*
X018250Y010180D01*
X018125Y010305D01*
X018125Y010852D01*
X017141Y010852D02*
X017125Y010836D01*
X019109Y010852D02*
X019187Y010930D01*
X020250Y010930D01*
X021000Y011680D01*
X021875Y011680D01*
X023000Y011930D02*
X021875Y013055D01*
X021875Y015305D01*
X020125Y017305D01*
X013625Y017305D01*
X011625Y018930D01*
X010875Y018930D01*
X009499Y020306D01*
X009318Y020306D01*
X008750Y019738D01*
X009499Y020306D02*
X006058Y020306D01*
X006058Y021054D02*
X007541Y021054D01*
X007995Y021508D01*
X009334Y022374D02*
X009334Y022596D01*
X008875Y023055D01*
X008875Y023430D01*
X008750Y023555D01*
X008750Y024930D01*
X008750Y025180D01*
X008750Y026055D01*
X009125Y026430D01*
X009125Y028180D01*
X009250Y028805D02*
X008750Y029305D01*
X009250Y028805D02*
X009375Y028805D01*
X008250Y027220D02*
X008165Y027220D01*
X007500Y026555D01*
X005500Y026555D01*
X005125Y026180D01*
X005125Y024099D01*
X005125Y022761D02*
X005125Y020747D01*
X005192Y020680D01*
X005000Y018180D02*
X004375Y017555D01*
X004375Y016805D01*
X004875Y016305D01*
X005000Y016305D01*
X005000Y015180D01*
X005125Y015180D01*
X005125Y015224D01*
X005125Y013886D02*
X004956Y013886D01*
X004375Y013305D01*
X004375Y012180D01*
X005000Y011555D01*
X007375Y011555D01*
X008750Y011180D02*
X008875Y011055D01*
X009125Y010805D01*
X009625Y010805D01*
X009875Y010930D01*
X010125Y011180D01*
X010625Y011180D01*
X010875Y010930D01*
X011250Y010930D01*
X012500Y010930D01*
X012875Y010555D01*
X012875Y009680D01*
X013575Y009255D02*
X012250Y007930D01*
X011460Y007930D01*
X011375Y007845D01*
X011350Y007870D01*
X010300Y007870D01*
X010325Y008515D02*
X010300Y008540D01*
X010300Y010175D01*
X010295Y010180D01*
X010325Y008515D02*
X011375Y008515D01*
X008750Y011180D02*
X008750Y012180D01*
X008750Y013180D01*
X008125Y013805D01*
X007125Y013805D01*
X006919Y013886D01*
X006750Y013886D01*
X006831Y015055D02*
X006750Y015224D01*
X006831Y015055D02*
X007790Y015055D01*
X008460Y015055D02*
X008500Y015095D01*
X008625Y015055D01*
X008750Y015055D01*
X009250Y015055D01*
X009442Y014180D02*
X009375Y014055D01*
X009375Y013497D01*
X009375Y013372D01*
X009375Y013180D01*
X011960Y015430D02*
X012000Y015470D01*
X012000Y016470D01*
X012415Y016470D01*
X012750Y016805D01*
X012000Y017140D02*
X012000Y017180D01*
X011000Y018180D01*
X005000Y018180D01*
X007500Y019180D02*
X007808Y018872D01*
X008376Y018872D01*
X011625Y019555D02*
X012250Y020180D01*
X012250Y027430D01*
X012500Y027680D01*
X013375Y027680D01*
X014750Y028805D02*
X013875Y029680D01*
X013875Y032305D01*
X012375Y033805D01*
X012375Y035055D01*
X012125Y035305D01*
X012125Y035430D01*
X012500Y036305D01*
X012500Y037112D01*
X012124Y037613D01*
X010500Y038680D02*
X011875Y039555D01*
X012125Y039680D01*
X012125Y040680D01*
X012625Y041180D01*
X012875Y041180D01*
X013125Y041430D01*
X013875Y043305D02*
X013750Y043430D01*
X013125Y043980D02*
X013625Y044480D01*
X014525Y044480D01*
X015325Y045280D01*
X015325Y045845D01*
X015360Y045880D01*
X015360Y046215D01*
X015725Y046580D01*
X015725Y047145D01*
X015660Y047180D01*
X015660Y048180D01*
X015660Y049180D01*
X015625Y049215D01*
X015625Y049680D01*
X015400Y049905D01*
X014035Y049905D01*
X014725Y049180D02*
X014990Y049180D01*
X014725Y049180D02*
X013625Y048080D01*
X013305Y048095D01*
X013209Y048095D01*
X012540Y048764D02*
X012540Y049080D01*
X013365Y049905D01*
X011625Y049180D02*
X011025Y049780D01*
X009535Y049780D01*
X010125Y049205D02*
X008090Y049205D01*
X007925Y049245D01*
X007925Y049915D02*
X008731Y049915D01*
X008865Y049780D01*
X007925Y049915D02*
X006725Y049915D01*
X005625Y049915D01*
X005390Y049880D01*
X004725Y049880D01*
X004325Y049480D01*
X004325Y048580D01*
X004975Y047930D01*
X005625Y047930D01*
X005725Y047880D01*
X007925Y045680D01*
X008260Y045680D01*
X008325Y045645D01*
X010260Y045645D01*
X010325Y045580D01*
X010694Y045580D01*
X010710Y045596D01*
X011125Y045180D02*
X010825Y044880D01*
X010325Y044880D01*
X010025Y045180D01*
X007625Y045180D01*
X007090Y045715D01*
X006425Y045715D01*
X006425Y045045D02*
X006375Y044995D01*
X006375Y043930D01*
X007000Y043930D02*
X007000Y043180D01*
X007375Y042805D01*
X008125Y042805D01*
X008750Y042180D01*
X009125Y041805D01*
X009125Y041305D01*
X008750Y040930D01*
X008149Y040930D01*
X008750Y040930D01*
X009125Y041305D01*
X009125Y041805D01*
X008750Y042180D01*
X008375Y041680D02*
X008375Y041656D01*
X008149Y041430D01*
X008375Y041680D02*
X008000Y042055D01*
X005750Y042055D01*
X005125Y042055D01*
X004625Y041555D01*
X004625Y041515D01*
X004710Y040930D02*
X004625Y040845D01*
X004710Y040930D02*
X006101Y040930D01*
X005500Y040930D01*
X005250Y040680D01*
X005250Y040305D01*
X004875Y039930D01*
X005250Y039305D02*
X005875Y039930D01*
X006101Y039930D01*
X006101Y040430D02*
X006625Y040430D01*
X007125Y040805D01*
X007500Y040430D02*
X007000Y039930D01*
X006625Y039430D01*
X006101Y039406D01*
X006375Y038930D02*
X006750Y038930D01*
X007125Y039305D01*
X007500Y039680D01*
X007750Y039930D01*
X008149Y039930D01*
X008149Y040430D02*
X007500Y040430D01*
X008750Y038680D02*
X010500Y038680D01*
X009375Y038055D02*
X009000Y038055D01*
X008750Y037805D01*
X008750Y037220D01*
X008790Y037180D01*
X008790Y035680D01*
X009460Y035680D02*
X009460Y037180D01*
X009585Y037305D01*
X010250Y037305D01*
X009460Y035680D02*
X009710Y035430D01*
X010250Y035430D01*
X008000Y035305D02*
X007835Y035305D01*
X007460Y035680D01*
X007460Y037180D01*
X007460Y038390D01*
X007500Y038430D01*
X006790Y037180D02*
X005960Y037180D01*
X005290Y037180D02*
X005125Y037015D01*
X005125Y036015D01*
X005710Y036015D01*
X006000Y036305D01*
X005835Y035345D02*
X005875Y035305D01*
X005835Y035345D02*
X005125Y035345D01*
X005375Y034349D02*
X004544Y034349D01*
X004250Y034055D01*
X004250Y032430D01*
X004500Y032180D01*
X006250Y032180D01*
X006875Y031555D01*
X006875Y030680D01*
X007250Y030305D01*
X007805Y030305D01*
X007910Y031180D02*
X007805Y031285D01*
X007910Y031180D02*
X008125Y031180D01*
X008875Y031805D02*
X009540Y031805D01*
X009665Y031930D01*
X009665Y032305D01*
X009665Y031930D02*
X009665Y031305D01*
X010335Y031305D02*
X010460Y031180D01*
X012250Y031180D01*
X011000Y032305D02*
X010335Y032305D01*
X013000Y034305D02*
X013250Y034555D01*
X013250Y035015D01*
X013415Y035180D01*
X014085Y035180D02*
X014875Y035180D01*
X014806Y033430D02*
X015000Y033236D01*
X015000Y033430D01*
X018125Y033227D02*
X018250Y033102D01*
X018250Y032680D01*
X018500Y032430D01*
X019500Y031430D01*
X020000Y030930D01*
X022500Y030930D01*
X022125Y030055D02*
X020875Y030055D01*
X020625Y030305D01*
X021625Y031430D02*
X024750Y031430D01*
X025125Y031805D01*
X025125Y032180D01*
X026500Y030430D02*
X027125Y031055D01*
X028625Y031055D01*
X029000Y031430D01*
X029000Y032055D01*
X029125Y032180D01*
X029125Y030930D02*
X030875Y030930D01*
X031250Y031305D01*
X032000Y031430D02*
X032500Y030930D01*
X033250Y030930D01*
X032500Y031805D02*
X032500Y033086D01*
X032641Y033227D01*
X032000Y034180D02*
X032000Y031430D01*
X033750Y032680D02*
X033750Y033305D01*
X033625Y033430D01*
X033625Y033227D01*
X033750Y032680D02*
X033875Y032555D01*
X034609Y033227D02*
X034609Y030539D01*
X034625Y030180D01*
X034692Y029988D01*
X034442Y027555D01*
X034692Y028372D01*
X035000Y028680D01*
X034442Y027555D02*
X034250Y027113D01*
X034250Y026613D01*
X033750Y026180D02*
X033750Y025873D01*
X033876Y025747D01*
X033750Y026180D02*
X033250Y026680D01*
X033250Y027680D01*
X032625Y028305D01*
X035308Y027181D02*
X035500Y027180D01*
X035625Y027305D01*
X035807Y027305D01*
X035875Y027555D01*
X036125Y027680D01*
X036250Y027930D01*
X037141Y022727D02*
X036634Y022220D01*
X036375Y022220D01*
X034500Y019555D02*
X034450Y019380D01*
X033774Y019380D01*
X033875Y019856D02*
X033774Y019880D01*
X033375Y020680D02*
X033125Y020680D01*
X032300Y019880D02*
X032750Y019430D01*
X032300Y019880D02*
X031726Y019880D01*
X031726Y019380D02*
X031711Y019365D01*
X030550Y019365D01*
X030550Y020045D01*
X030525Y020070D01*
X029875Y019930D02*
X029875Y020305D01*
X029750Y019305D02*
X029250Y018805D01*
X028875Y019180D01*
X028875Y019430D01*
X028625Y019680D01*
X027750Y019680D01*
X027500Y019430D01*
X027500Y019220D01*
X027540Y019180D01*
X026524Y019180D01*
X026524Y018680D02*
X028000Y018680D01*
X028250Y018930D01*
X028250Y019140D01*
X028210Y019180D01*
X028210Y018470D01*
X028250Y018430D01*
X029250Y018805D02*
X030125Y017930D01*
X031000Y017930D01*
X031340Y017930D01*
X031765Y017505D01*
X031726Y017544D01*
X031726Y018380D01*
X031726Y018880D02*
X031075Y018880D01*
X031000Y018805D01*
X030660Y018805D01*
X030550Y018695D01*
X031375Y016680D02*
X028750Y016680D01*
X027875Y015805D01*
X026669Y015805D01*
X026669Y015474D01*
X025331Y015805D02*
X024460Y015805D01*
X023790Y015805D02*
X023790Y015095D01*
X023625Y014930D01*
X022875Y016497D02*
X022875Y013180D01*
X023000Y013055D01*
X023000Y011930D02*
X024000Y010855D01*
X019750Y016305D02*
X019375Y016680D01*
X016375Y016680D01*
X016250Y016805D01*
X015750Y016805D01*
X015625Y016680D01*
X014125Y016680D01*
X013875Y016680D01*
X013625Y016430D01*
X013125Y015930D01*
X012750Y015930D01*
X012500Y015680D01*
X014250Y016055D02*
X014250Y014930D01*
X014625Y014555D01*
X013665Y013180D02*
X013665Y011565D01*
X013713Y011518D01*
X014250Y017930D02*
X014500Y018180D01*
X015250Y018180D01*
X015625Y018555D01*
X023750Y018555D01*
X023875Y018680D01*
X024476Y018680D01*
X024476Y018180D02*
X024476Y017680D01*
X024000Y017680D01*
X023875Y017555D01*
X023307Y017555D01*
X023249Y017363D01*
X023249Y017806D01*
X023000Y018055D01*
X021500Y018055D01*
X021375Y018055D01*
X021125Y017805D01*
X021875Y019180D02*
X021125Y019680D01*
X021835Y019220D02*
X021875Y019180D01*
X021835Y019220D02*
X022875Y019220D01*
X024476Y019180D01*
X024476Y019680D02*
X023750Y019680D01*
X023625Y019805D01*
X023625Y020930D01*
X024250Y021555D01*
X024500Y021055D02*
X024500Y020704D01*
X024476Y020680D01*
X024476Y020180D01*
X024500Y021055D02*
X025067Y021622D01*
X025251Y021622D01*
X025625Y022488D02*
X025750Y022680D01*
X025750Y022727D01*
X024109Y022727D01*
X022125Y020180D02*
X022290Y019890D01*
X022875Y019890D01*
X025500Y020055D02*
X025750Y019805D01*
X025875Y019680D01*
X026524Y019680D01*
X026524Y020180D02*
X027809Y020180D01*
X027876Y020247D01*
X026524Y018180D02*
X026524Y017680D01*
X031375Y016680D02*
X031625Y016430D01*
X032500Y016430D01*
X033125Y016805D01*
X034375Y016805D01*
X035000Y017305D02*
X034250Y017930D01*
X033125Y017930D01*
X033000Y017430D02*
X032575Y017505D01*
X032435Y017505D01*
X035000Y017305D02*
X036000Y016305D01*
X031625Y006156D02*
X031625Y005805D01*
X032250Y005305D02*
X033085Y005305D01*
X033125Y005265D01*
X034125Y005220D02*
X034290Y005055D01*
X029790Y006180D02*
X029750Y006220D01*
X015875Y020805D02*
X015875Y028680D01*
X016375Y029180D01*
X017625Y029180D01*
X014750Y028805D02*
X014750Y021305D01*
X013468Y020023D01*
X013468Y019933D01*
X014500Y019430D02*
X014500Y018930D01*
X014500Y019430D02*
X015875Y020805D01*
X018625Y024180D02*
X019625Y024180D01*
X020250Y024180D01*
X020625Y023805D01*
X018875Y025180D02*
X020625Y026930D01*
X020625Y027930D01*
X021125Y028430D01*
X024625Y028430D01*
X026375Y026680D01*
X026375Y026305D01*
X026375Y026180D01*
X026500Y030180D02*
X026500Y030430D01*
X028500Y030305D02*
X029125Y030930D01*
X032000Y034180D02*
X031500Y034680D01*
X029000Y037180D01*
X029000Y037430D01*
X030125Y038430D02*
X031125Y037430D01*
X031375Y038555D02*
X031875Y038555D01*
X031875Y038680D01*
X033250Y040055D01*
X035875Y040055D01*
X036375Y040555D01*
X036500Y040680D01*
X036500Y040930D01*
X036500Y043805D01*
X036500Y044680D01*
X036000Y045180D01*
X036000Y046414D01*
X035984Y046430D01*
X036000Y046446D01*
X036000Y047680D01*
X035375Y048555D02*
X035125Y048305D01*
X035125Y044930D01*
X034500Y044305D01*
X031500Y041055D01*
X031125Y041055D01*
X030125Y040055D01*
X030125Y038430D01*
X025500Y041430D02*
X024875Y042055D01*
X022750Y040220D02*
X022710Y040180D01*
X022750Y040180D01*
X022040Y040180D02*
X022000Y040220D01*
X022000Y040430D01*
X022625Y038305D02*
X022000Y037680D01*
X022000Y034930D01*
X020750Y033680D01*
X020750Y032305D01*
X021625Y031430D01*
X018875Y025180D02*
X018625Y025180D01*
X008250Y026430D02*
X007710Y025890D01*
X007500Y025890D01*
X007085Y027680D02*
X007125Y027720D01*
X007125Y028430D01*
X007805Y029110D01*
X007805Y029325D01*
X006290Y027805D02*
X006415Y027680D01*
X006290Y027805D02*
X006250Y027805D01*
X005445Y028610D01*
X005445Y029325D01*
X005581Y032805D02*
X005375Y033011D01*
X005581Y032805D02*
X006125Y032805D01*
X006790Y033470D01*
X006875Y033470D01*
X006875Y034140D02*
X006875Y035595D01*
X006790Y035680D01*
X006790Y037180D01*
X007750Y043555D02*
X008085Y043555D01*
X008500Y043970D01*
X008440Y044580D02*
X007525Y044580D01*
X007000Y044055D01*
X007000Y043930D01*
X008440Y044580D02*
X008500Y044640D01*
X008325Y046315D02*
X009991Y046315D01*
X010041Y046265D01*
X011325Y046080D02*
X011125Y045180D01*
X011625Y045350D02*
X011625Y044345D01*
X011990Y043780D01*
X012660Y043780D02*
X012725Y044045D01*
X012725Y044580D01*
X012540Y045595D02*
X014406Y045595D01*
X014690Y045880D01*
X013910Y046265D02*
X014425Y046780D01*
X014690Y046780D01*
X014990Y047180D01*
X014525Y047880D02*
X014825Y048180D01*
X014990Y048180D01*
X014525Y047880D02*
X013825Y047180D01*
X013690Y047180D01*
X013455Y047180D01*
X013209Y046265D02*
X013910Y046265D01*
X011625Y047180D02*
X011325Y046080D01*
X010041Y048095D02*
X009410Y048095D01*
X008825Y048680D01*
X007290Y048680D01*
X006725Y049245D01*
X005625Y049245D02*
X005360Y049180D01*
X004825Y049180D01*
X010125Y049205D02*
X010441Y048764D01*
X010710Y048764D01*
X011625Y049010D02*
X011625Y049180D01*
X013125Y043980D02*
X012660Y043780D01*
X022625Y038305D02*
X024500Y038305D01*
X035375Y048555D02*
X036750Y048555D01*
X037040Y048845D01*
X037000Y048970D01*
X040875Y042805D02*
X040875Y042680D01*
X039875Y041680D01*
X039875Y038180D01*
X039375Y037680D01*
X037500Y037680D01*
X036625Y036805D01*
X041250Y031474D02*
X041206Y031430D01*
X007798Y010180D02*
X007750Y010132D01*
X007750Y009680D01*
X006960Y008890D01*
X006960Y008680D01*
X006290Y008680D02*
X006165Y008805D01*
X006000Y008805D01*
X005298Y009507D01*
X005298Y010180D01*
D44*
X007375Y011555D03*
X009375Y013180D03*
X009250Y015055D03*
X010500Y015180D03*
X012750Y016805D03*
X013000Y015180D03*
X014250Y016055D03*
X014625Y014555D03*
X016000Y016305D03*
X014250Y017930D03*
X014500Y018930D03*
X011625Y019555D03*
X013750Y026055D03*
X013375Y027680D03*
X010750Y029055D03*
X009375Y028805D03*
X009125Y028180D03*
X008250Y026430D03*
X012250Y031180D03*
X013000Y032180D03*
X014000Y033430D03*
X013000Y034305D03*
X011000Y032305D03*
X008875Y031805D03*
X008000Y035305D03*
X005250Y039305D03*
X015625Y034055D03*
X020625Y030305D03*
X023250Y037430D03*
X020750Y037805D03*
X019875Y039680D03*
X026750Y037180D03*
X029000Y037430D03*
X031125Y037430D03*
X031375Y038555D03*
X035375Y039305D03*
X036125Y037430D03*
X036125Y033680D03*
X037125Y032055D03*
X038375Y033555D03*
X033375Y031680D03*
X032500Y031805D03*
X033250Y030930D03*
X031250Y031305D03*
X041125Y020305D03*
X038625Y019180D03*
X037125Y019180D03*
X038500Y016055D03*
X040500Y016555D03*
X041000Y015305D03*
X042000Y015305D03*
X043625Y012430D03*
X045375Y009930D03*
X042375Y008055D03*
X040625Y006055D03*
X038375Y007930D03*
X039000Y009180D03*
X038625Y011305D03*
X037000Y010055D03*
X034125Y009805D03*
X033500Y009805D03*
X032125Y009930D03*
X031625Y009430D03*
X031250Y010555D03*
X030875Y011055D03*
X030250Y009805D03*
X029250Y010805D03*
X030500Y007430D03*
X031875Y007305D03*
X032625Y006930D03*
X033625Y007055D03*
X035250Y006055D03*
X036000Y005180D03*
X037500Y006680D03*
X032250Y005305D03*
X032250Y004680D03*
X029625Y005180D03*
X023000Y013055D03*
X021875Y011680D03*
X020125Y010180D03*
X019125Y008055D03*
X015625Y009180D03*
X012875Y009680D03*
X011875Y010430D03*
X012125Y012305D03*
X019750Y016305D03*
X021125Y017805D03*
X021875Y017180D03*
X023625Y014930D03*
X024750Y016930D03*
X025500Y020055D03*
X028250Y018430D03*
X029250Y019930D03*
X031000Y017930D03*
X030875Y016180D03*
X033000Y017430D03*
X034375Y016805D03*
X032750Y019430D03*
X021125Y019680D03*
X045500Y018930D03*
X045375Y005555D03*
D45*
X033500Y010727D02*
X033250Y010477D01*
X033250Y010305D01*
X032665Y009720D01*
X032665Y009180D01*
X031125Y006055D02*
X030790Y005345D01*
X030790Y005180D01*
X033125Y017930D02*
X032250Y018930D01*
X031776Y018930D01*
X031726Y018880D01*
X032700Y020230D02*
X033075Y020230D01*
X033125Y020180D01*
X033375Y019930D01*
X033875Y019856D01*
X033774Y019880D01*
X034500Y019555D02*
X034450Y019380D01*
X033875Y020680D02*
X033625Y020680D01*
X033375Y020680D01*
X033125Y020680D01*
X032510Y020680D01*
X032310Y020605D01*
X032625Y020305D01*
X032700Y020230D01*
X031700Y020605D02*
X031625Y020930D01*
X031625Y021515D01*
X031665Y021555D01*
X031125Y021555D01*
X030625Y021055D01*
X030625Y020840D01*
X030525Y020740D01*
X030525Y021155D01*
X029750Y021930D01*
X029750Y022618D01*
X029641Y022727D01*
X029000Y022180D02*
X027500Y023680D01*
X027500Y026930D01*
X024250Y030180D01*
X023250Y030180D01*
X022500Y030930D01*
X022625Y030055D02*
X022125Y030055D01*
X022625Y030055D02*
X023625Y029055D01*
X024750Y029055D01*
X027125Y026680D01*
X027125Y023055D01*
X028250Y021930D01*
X029250Y020930D01*
X029875Y020305D01*
X029875Y019930D01*
X029875Y019430D01*
X029750Y019305D01*
X028250Y021113D02*
X028067Y021113D01*
X027688Y021493D01*
X026500Y022680D01*
X025750Y022680D01*
X026524Y020680D02*
X026524Y020180D01*
X029000Y021930D02*
X029000Y022180D01*
X030625Y021805D02*
X031000Y022180D01*
X032125Y022180D01*
X032250Y022305D01*
X032250Y023180D01*
X032750Y023680D01*
X033351Y023680D01*
X033351Y023180D02*
X032875Y023180D01*
X032625Y022930D01*
X032625Y021805D01*
X032540Y021720D01*
X032500Y021720D01*
X032335Y021555D01*
X033351Y021680D02*
X033625Y021204D01*
X034125Y021180D02*
X034125Y020930D01*
X034000Y020805D01*
X033875Y020680D01*
X033351Y021680D02*
X033351Y022180D01*
X034625Y021555D02*
X035125Y021555D01*
X035250Y021680D01*
X035399Y021680D01*
X035399Y022180D01*
X035399Y021680D01*
X035399Y023180D02*
X035000Y023180D01*
X035399Y023180D02*
X036125Y023180D01*
X036375Y022930D01*
X036375Y022890D01*
X035399Y023680D02*
X035000Y023680D01*
X034750Y023930D01*
X034375Y024055D01*
X033351Y024180D02*
X033351Y024680D01*
X033375Y024680D01*
X033875Y025180D01*
X033875Y025746D01*
X033876Y025747D01*
X033750Y027180D02*
X033875Y027305D01*
X033875Y032555D01*
X036625Y031430D02*
X036625Y029805D01*
X037250Y029180D01*
X037500Y030680D02*
X037875Y031180D01*
X038125Y031180D01*
X038500Y030680D02*
X039875Y029555D01*
X039875Y028305D01*
X040875Y027430D01*
X040875Y025055D01*
X041000Y024930D01*
X041290Y024640D01*
X041290Y024180D01*
X038750Y021305D02*
X039058Y020997D01*
X039376Y020997D01*
X035399Y024180D02*
X035399Y024680D01*
X035250Y024829D01*
X035250Y026430D01*
X035308Y026488D01*
X035308Y027181D01*
X040500Y028470D02*
X040790Y028180D01*
X040500Y028470D02*
X040500Y028805D01*
X031700Y020605D02*
X031640Y020605D01*
X028625Y028055D02*
X028500Y028430D01*
X028500Y030305D01*
X027125Y029555D02*
X027125Y029305D01*
X027125Y029555D02*
X026500Y030180D01*
X026125Y029680D02*
X025625Y030180D01*
X026125Y029680D02*
X026375Y029430D01*
X026375Y029055D01*
X029125Y033180D02*
X029125Y034180D01*
X026750Y036555D01*
X026750Y037180D01*
X015375Y037305D02*
X014567Y036497D01*
X014000Y036497D01*
X013808Y036305D01*
X013500Y036305D01*
X013250Y036555D01*
X012875Y037680D01*
X012000Y038555D01*
X011500Y038555D01*
X010875Y037930D01*
X010875Y037180D01*
X011308Y036747D01*
X011750Y036747D01*
X012000Y035430D02*
X010875Y035430D01*
X012000Y035430D02*
X012125Y035305D01*
X008750Y037805D02*
X008000Y038555D01*
X007625Y038930D01*
X007375Y038930D01*
X006915Y038470D01*
X006875Y038430D01*
X006875Y037305D01*
X006875Y037265D01*
X006790Y037180D01*
X005625Y038305D02*
X005750Y038555D01*
X005750Y039055D01*
X006101Y039406D01*
X006750Y022761D02*
X006750Y021930D01*
X018625Y022180D02*
X019500Y022180D01*
X019625Y022055D01*
X022750Y022055D01*
X021125Y019680D02*
X021000Y019680D01*
X019875Y019680D01*
X019500Y019680D01*
D46*
X019500Y019680D03*
X020750Y020805D03*
X022125Y020180D03*
X022750Y022055D03*
X024250Y021555D03*
X026250Y023430D03*
X027688Y021493D03*
X026625Y021180D03*
X029000Y021930D03*
X029625Y021305D03*
X030625Y021805D03*
X032875Y021180D03*
X033375Y020680D03*
X033625Y021204D03*
X034625Y021555D03*
X034625Y022180D03*
X035250Y020680D03*
X034500Y020305D03*
X034375Y023430D03*
X034375Y024055D03*
X033750Y027180D03*
X032625Y028305D03*
X035000Y028680D03*
X036250Y027930D03*
X037250Y029180D03*
X037500Y030680D03*
X038500Y030680D03*
X040500Y028805D03*
X040625Y023305D03*
X038750Y021305D03*
X039125Y020180D03*
X032250Y016930D03*
X029000Y017805D03*
X023750Y016805D03*
X020625Y023805D03*
X022000Y028930D03*
X025625Y030180D03*
X026375Y029055D03*
X027125Y029305D03*
X028625Y028055D03*
X027875Y027305D03*
X026375Y026180D03*
X015250Y029305D03*
X006750Y021930D03*
X007500Y019180D03*
X024875Y042055D03*
X029875Y043305D03*
X033250Y049430D03*
X036000Y012555D03*
X031125Y006055D03*
D47*
X014875Y035180D03*
X015375Y037305D03*
X015750Y038180D03*
X014500Y038805D03*
X012125Y035305D03*
X010875Y035430D03*
X010250Y035430D03*
X010250Y037305D03*
X009375Y038055D03*
X007500Y038430D03*
X006375Y038930D03*
X005625Y038305D03*
X004875Y039930D03*
X007125Y040805D03*
X008750Y042180D03*
X007750Y043555D03*
X005750Y043055D03*
X006000Y036305D03*
X005875Y035305D03*
D48*
X020750Y020805D02*
X021500Y021555D01*
X023000Y021555D01*
X023625Y022180D01*
X025000Y022180D01*
X025376Y021804D01*
X025251Y021622D01*
X026625Y021180D02*
X026625Y020781D01*
X026524Y020680D01*
X031625Y017365D02*
X031765Y017505D01*
X031625Y017365D02*
X031625Y017180D01*
X031875Y016930D01*
X032250Y016930D01*
X032875Y021180D02*
X032500Y021555D01*
X032335Y021555D01*
X033351Y022680D02*
X033875Y022680D01*
X034250Y023055D01*
X034375Y023430D01*
X034875Y023055D02*
X034625Y022805D01*
X034500Y022805D01*
X034125Y022430D01*
X034125Y021180D01*
X034625Y022180D02*
X034625Y022305D01*
X034750Y022430D01*
X035000Y022680D01*
X035399Y022680D01*
X035000Y023180D02*
X034875Y023055D01*
X035625Y010470D02*
X035625Y010180D01*
X036375Y009430D01*
X036375Y006430D01*
X035000Y005055D01*
X034125Y005220D02*
X034125Y006156D01*
X034625Y006156D01*
X035250Y006055D02*
X036000Y006805D01*
X036000Y008055D01*
X035851Y008204D01*
X034625Y008204D01*
X035311Y008204D01*
X035375Y007470D02*
X034210Y007470D01*
X034125Y007555D01*
X034125Y008055D01*
X034125Y008204D02*
X034125Y009055D01*
X034125Y009305D01*
X034125Y009805D01*
X034375Y009430D02*
X034665Y009430D01*
X034375Y009430D02*
X034125Y009180D01*
X034125Y009055D01*
X033625Y008204D02*
X033625Y007680D01*
X033500Y007555D01*
X032750Y007555D01*
X032625Y007680D01*
X032625Y008204D01*
X032625Y008805D01*
X032665Y009140D01*
X032665Y009180D01*
X033085Y008890D02*
X033085Y008744D01*
X033125Y008204D01*
X033085Y008890D02*
X033250Y009055D01*
X033335Y009180D01*
X032125Y009930D02*
X032125Y008204D01*
X031625Y008204D02*
X031625Y009430D01*
X030625Y009430D02*
X030625Y008845D01*
X030585Y008805D01*
X030625Y009430D02*
X030250Y009805D01*
X029750Y010305D02*
X030000Y010555D01*
X031250Y010555D01*
X029750Y010305D02*
X029750Y008970D01*
X029915Y008805D01*
X029915Y007470D01*
X029750Y007305D01*
X029750Y006220D01*
X029125Y006680D02*
X029125Y005680D01*
X029625Y005180D01*
X030460Y006180D02*
X030460Y007390D01*
X030500Y007430D01*
X031625Y006156D02*
X032125Y006156D01*
X032625Y006156D02*
X032625Y006930D01*
X033125Y006156D02*
X033125Y005265D01*
X033125Y004595D02*
X032710Y004595D01*
X032250Y004680D01*
X031460Y005180D02*
X031460Y005640D01*
X031625Y005805D01*
X033625Y006156D02*
X033625Y007055D01*
X029125Y006680D02*
X028625Y007180D01*
X028125Y007180D01*
X024500Y038305D02*
X024875Y038680D01*
X024875Y039555D01*
X024500Y039930D01*
X024000Y039930D01*
X023625Y040305D01*
X023625Y041180D01*
X023835Y041390D01*
X024250Y041390D01*
X024250Y043180D01*
X025500Y041430D02*
X025500Y041390D01*
D49*
X027125Y039180D02*
X027125Y038055D01*
X030875Y034305D01*
X031125Y034055D01*
X031125Y033180D01*
X029875Y043305D02*
X030500Y043930D01*
X030500Y046555D01*
X031875Y047930D01*
X031875Y048055D01*
X027000Y048055D01*
X022250Y043680D01*
X022250Y042555D01*
X021625Y041930D01*
X018875Y045680D02*
X016875Y045680D01*
X016250Y045055D01*
X015375Y044180D01*
X015375Y042930D01*
X015375Y040612D01*
X015193Y040430D01*
X018875Y045680D02*
X020000Y046805D01*
X021875Y046805D01*
X023134Y048064D01*
X023134Y048580D01*
X021166Y048580D02*
X020766Y048180D01*
X019500Y048180D01*
X019125Y048555D01*
X018000Y049680D01*
X017375Y049680D01*
X031875Y048055D02*
X033250Y049430D01*
D50*
X027871Y021493D02*
X028250Y021113D01*
X027871Y021493D02*
X027688Y021493D01*
X023750Y016805D02*
X023442Y016497D01*
X022875Y016497D01*
D51*
X006375Y043930D03*
X004825Y049180D03*
X012725Y044580D03*
M02*
